<svg xmlns="http://www.w3.org/2000/svg" xmlns:xlink="http://www.w3.org/1999/xlink" viewBox="0 0 246.77 192.47"><defs><style>.cls-1,.cls-2{fill:none;}.cls-2{stroke:#97da01;stroke-miterlimit:10;}.cls-3{fill:#97da01;}.cls-4{fill:url(#Motivo_nuevo_2);}</style><pattern id="Motivo_nuevo_2" data-name="Motivo nuevo 2" width="456" height="243.05" patternUnits="userSpaceOnUse" viewBox="0 0 456 243.05"><rect class="cls-1" width="456" height="243.05"/><path class="cls-2" d="M136.09,276.71l-5.61-5.53-2.36-2.34-20.63-20.35-2.33-2.3-12-11.89c-.65-.64-1.27-.62-1.39,0a3,3,0,0,0,.94,2.31l8.71,8.6,2.07,2.05.06.05,2.18,2.15c7,6.88,15.36,15.17,21.49,21.21.78.76,1.51,1.48,2.2,2.18,3.79,3.72,6.27,6.18,6.27,6.18.43.43.85.57,1.12.41A.53.53,0,0,0,137,279,3,3,0,0,0,136.09,276.71Z"/><path class="cls-3" d="M181.44,279.13l-5.61-5.54-2.36-2.33-20.63-20.35-2.33-2.3-12-11.89c-.65-.64-1.27-.62-1.39,0a3,3,0,0,0,.94,2.31l8.71,8.59,2.07,2.05.06.06c.71.69,1.44,1.42,2.18,2.15,7,6.88,15.36,15.17,21.49,21.21l2.2,2.17,6.27,6.18c.43.43.85.58,1.12.42a.57.57,0,0,0,.26-.43A3,3,0,0,0,181.44,279.13Z"/><path class="cls-2" d="M44.89,267l-5.61-5.54-2.36-2.33L16.29,238.77,14,236.47l-12-11.89c-.65-.64-1.27-.62-1.39,0a3,3,0,0,0,.94,2.31l8.71,8.59,2.07,2.05.06.06c.71.69,1.44,1.42,2.18,2.15,7,6.88,15.36,15.17,21.49,21.21l2.2,2.17,6.27,6.18c.43.44.85.58,1.12.42a.58.58,0,0,0,.27-.43A3,3,0,0,0,44.89,267Z"/><path class="cls-3" d="M90.24,269.41l-5.61-5.54-2.36-2.33L61.64,241.19l-2.33-2.3L47.26,227c-.65-.64-1.27-.63-1.39,0a3,3,0,0,0,.94,2.31l8.71,8.59L57.59,240l.06.06c.71.69,1.44,1.42,2.18,2.15l21.49,21.2,2.2,2.18,6.27,6.18c.43.43.85.57,1.12.42a.57.57,0,0,0,.26-.43A3,3,0,0,0,90.24,269.41Z"/><path class="cls-2" d="M409.69,257.27l-5.61-5.54-2.36-2.33-20.63-20.35-2.33-2.3-12.05-11.89c-.65-.64-1.27-.63-1.39,0a3,3,0,0,0,.94,2.31l8.7,8.59,2.08,2.05.06.06c.71.69,1.44,1.42,2.18,2.15,7,6.88,15.36,15.17,21.49,21.2l2.2,2.18,6.27,6.18c.43.43.85.57,1.12.42a.57.57,0,0,0,.26-.43A3,3,0,0,0,409.69,257.27Z"/><path class="cls-3" d="M455,259.69l-5.61-5.54-2.36-2.33-20.63-20.35-2.33-2.3-12.05-11.9c-.65-.63-1.27-.62-1.39,0a3.05,3.05,0,0,0,.94,2.32l8.7,8.59,2.08,2.05.06.06c.71.69,1.44,1.42,2.18,2.15l21.49,21.2,2.2,2.18,6.27,6.18c.43.43.85.57,1.12.42A.57.57,0,0,0,456,262,3,3,0,0,0,455,259.69Z"/><path class="cls-2" d="M318.49,247.55,312.88,242l-2.36-2.33-20.63-20.35-2.33-2.3-12.05-11.9c-.65-.63-1.27-.62-1.39,0a3,3,0,0,0,.94,2.31l8.7,8.59,2.08,2.05.06.06c.71.69,1.44,1.42,2.18,2.15l21.49,21.2,2.2,2.18,6.27,6.18c.43.43.85.57,1.12.42a.57.57,0,0,0,.26-.43A3,3,0,0,0,318.49,247.55Z"/><path class="cls-3" d="M363.84,250l-5.61-5.53-2.36-2.34-20.63-20.35-2.33-2.3-12.05-11.89c-.65-.64-1.27-.62-1.39,0a3,3,0,0,0,.94,2.31l8.7,8.6,2.08,2.05.06.05,2.18,2.15c7,6.88,15.36,15.17,21.49,21.21.77.76,1.51,1.48,2.2,2.18,3.79,3.72,6.27,6.18,6.27,6.18.43.43.85.57,1.12.41a.53.53,0,0,0,.26-.43A3,3,0,0,0,363.84,250Z"/><path class="cls-2" d="M227.29,237.82l-5.61-5.53L219.32,230,198.69,209.6l-2.33-2.29-12.05-11.9c-.65-.63-1.27-.62-1.39,0a3.05,3.05,0,0,0,.94,2.32l8.71,8.59,2.07,2,.06.05,2.18,2.15c7,6.88,15.36,15.17,21.49,21.21.78.76,1.51,1.48,2.2,2.18,3.79,3.72,6.27,6.18,6.27,6.18.43.43.85.57,1.12.42a.57.57,0,0,0,.26-.44A3,3,0,0,0,227.29,237.82Z"/><path class="cls-3" d="M272.64,240.24,267,234.7l-2.36-2.33L244,212l-2.33-2.3-12.05-11.89c-.65-.64-1.27-.62-1.39,0a3,3,0,0,0,.94,2.31l8.7,8.59L240,210.8l.06.06c.71.69,1.44,1.42,2.18,2.15,7,6.88,15.36,15.17,21.49,21.21l2.2,2.17,6.27,6.18c.43.44.85.58,1.12.42a.55.55,0,0,0,.26-.43A3,3,0,0,0,272.64,240.24Z"/><path class="cls-2" d="M136.09,228.1l-5.61-5.53-2.36-2.34-20.63-20.35-2.33-2.3-12-11.89c-.65-.64-1.27-.62-1.39,0a3,3,0,0,0,.94,2.31l8.71,8.59,2.07,2.06.06.05c.71.69,1.44,1.42,2.18,2.15,7,6.88,15.36,15.17,21.49,21.21.78.76,1.51,1.48,2.2,2.18,3.79,3.72,6.27,6.18,6.27,6.18.43.43.85.57,1.12.41a.53.53,0,0,0,.26-.43A3,3,0,0,0,136.09,228.1Z"/><path class="cls-3" d="M181.44,230.52,175.83,225l-2.36-2.33L152.84,202.3l-2.33-2.3-12-11.89c-.65-.64-1.27-.63-1.39,0a3,3,0,0,0,.94,2.31l8.71,8.59,2.07,2.05.06.06c.71.69,1.44,1.42,2.18,2.15,7,6.88,15.36,15.17,21.49,21.2l2.2,2.18,6.27,6.18c.43.43.85.58,1.12.42a.57.57,0,0,0,.26-.43A3,3,0,0,0,181.44,230.52Z"/><path class="cls-2" d="M44.89,218.38l-5.61-5.54-2.36-2.33L16.29,190.16,14,187.86,1.91,176c-.65-.64-1.27-.62-1.39,0a3,3,0,0,0,.94,2.31l8.71,8.59,2.07,2.05.06.06c.71.69,1.44,1.42,2.18,2.15,7,6.88,15.36,15.17,21.49,21.21l2.2,2.17,6.27,6.18c.43.43.85.58,1.12.42a.6.6,0,0,0,.27-.43A3,3,0,0,0,44.89,218.38Z"/><path class="cls-3" d="M90.24,220.8l-5.61-5.54-2.36-2.33L61.64,192.58l-2.33-2.3-12.05-11.9c-.65-.63-1.27-.62-1.39,0a3,3,0,0,0,.94,2.31l8.71,8.59,2.07,2.05.06.06c.71.69,1.44,1.42,2.18,2.15l21.49,21.2,2.2,2.18,6.27,6.18c.43.43.85.57,1.12.42a.57.57,0,0,0,.26-.43A3,3,0,0,0,90.24,220.8Z"/><path class="cls-2" d="M409.69,208.66l-5.61-5.54-2.36-2.33-20.63-20.35-2.33-2.3-12.05-11.89c-.65-.64-1.27-.63-1.39,0a3,3,0,0,0,.94,2.31l8.7,8.59,2.08,2.05.06.06c.71.69,1.44,1.42,2.18,2.15l21.49,21.2,2.2,2.18,6.27,6.18c.43.43.85.57,1.12.42a.57.57,0,0,0,.26-.43A3,3,0,0,0,409.69,208.66Z"/><path class="cls-3" d="M455,211.08l-5.61-5.54-2.36-2.33-20.63-20.36-2.33-2.29-12.05-11.9c-.65-.63-1.27-.62-1.39,0a3.05,3.05,0,0,0,.94,2.32l8.7,8.59,2.08,2,.06.05,2.18,2.15c7,6.88,15.36,15.17,21.49,21.21l2.2,2.18c3.79,3.72,6.27,6.18,6.27,6.18.43.43.85.57,1.12.42a.57.57,0,0,0,.26-.44A3,3,0,0,0,455,211.08Z"/><path class="cls-2" d="M318.49,198.94l-5.61-5.54-2.36-2.33-20.63-20.35-2.33-2.3-12.05-11.9c-.65-.63-1.27-.62-1.39,0a3.05,3.05,0,0,0,.94,2.32l8.7,8.59,2.08,2.05.06.06c.71.69,1.44,1.42,2.18,2.15l21.49,21.2,2.2,2.18,6.27,6.18c.43.43.85.57,1.12.42a.57.57,0,0,0,.26-.43A3,3,0,0,0,318.49,198.94Z"/><path class="cls-3" d="M363.84,201.35l-5.61-5.53-2.36-2.34-20.63-20.35-2.33-2.3-12.05-11.89c-.65-.64-1.27-.62-1.39,0a3,3,0,0,0,.94,2.31l8.7,8.6,2.08,2,.06.05,2.18,2.15c7,6.88,15.36,15.17,21.49,21.21.77.76,1.51,1.48,2.2,2.18,3.79,3.72,6.27,6.18,6.27,6.18.43.43.85.57,1.12.41a.53.53,0,0,0,.26-.43A3,3,0,0,0,363.84,201.35Z"/><path class="cls-2" d="M227.29,189.21l-5.61-5.53-2.36-2.34L198.69,161l-2.33-2.29-12.05-11.9c-.65-.63-1.27-.62-1.39,0a3,3,0,0,0,.94,2.31l8.71,8.6,2.07,2.05.06.05,2.18,2.15c7,6.88,15.36,15.17,21.49,21.21.78.76,1.51,1.48,2.2,2.18,3.79,3.72,6.27,6.18,6.27,6.18.43.43.85.57,1.12.41a.53.53,0,0,0,.26-.43A3,3,0,0,0,227.29,189.21Z"/><path class="cls-3" d="M272.64,191.63,267,186.09l-2.36-2.33L244,163.41l-2.33-2.3-12.05-11.89c-.65-.64-1.27-.62-1.39,0a3,3,0,0,0,.94,2.31l8.7,8.59,2.08,2.05.06.06c.71.69,1.44,1.42,2.18,2.15,7,6.88,15.36,15.17,21.49,21.21l2.2,2.17,6.27,6.18c.43.44.85.58,1.12.42a.55.55,0,0,0,.26-.43A3,3,0,0,0,272.64,191.63Z"/><path class="cls-2" d="M136.09,179.49,130.48,174l-2.36-2.33-20.63-20.35-2.33-2.3-12-11.89c-.65-.64-1.27-.62-1.39,0a3,3,0,0,0,.94,2.31l8.71,8.59,2.07,2.05.06.06c.71.69,1.44,1.42,2.18,2.15,7,6.88,15.36,15.17,21.49,21.21l2.2,2.17c3.79,3.73,6.27,6.19,6.27,6.19.43.43.85.57,1.12.41a.55.55,0,0,0,.26-.43A3,3,0,0,0,136.09,179.49Z"/><path class="cls-3" d="M181.44,181.91l-5.61-5.54L173.47,174l-20.63-20.35-2.33-2.3-12-11.89c-.65-.64-1.27-.63-1.39,0a3,3,0,0,0,.94,2.31l8.71,8.59,2.07,2.05.06.06c.71.69,1.44,1.42,2.18,2.15,7,6.88,15.36,15.17,21.49,21.2l2.2,2.18,6.27,6.18c.43.43.85.57,1.12.42a.57.57,0,0,0,.26-.43A3,3,0,0,0,181.44,181.91Z"/><path class="cls-2" d="M44.89,169.77l-5.61-5.54-2.36-2.33L16.29,141.55,14,139.25l-12-11.89c-.65-.64-1.27-.63-1.39,0a3,3,0,0,0,.94,2.31l8.71,8.59,2.07,2.05.06.06c.71.69,1.44,1.42,2.18,2.15,7,6.88,15.36,15.17,21.49,21.2l2.2,2.18,6.27,6.18c.43.43.85.58,1.12.42a.6.6,0,0,0,.27-.43A3,3,0,0,0,44.89,169.77Z"/><path class="cls-3" d="M90.24,172.19l-5.61-5.54-2.36-2.33L61.64,144l-2.33-2.3-12.05-11.9c-.65-.63-1.27-.62-1.39,0a3,3,0,0,0,.94,2.31l8.71,8.59,2.07,2.05.06.06c.71.69,1.44,1.42,2.18,2.15l21.49,21.2,2.2,2.18,6.27,6.18c.43.43.85.57,1.12.42a.57.57,0,0,0,.26-.43A3,3,0,0,0,90.24,172.19Z"/><path class="cls-2" d="M409.69,160.05l-5.61-5.54-2.36-2.33-20.63-20.35-2.33-2.3-12.05-11.89c-.65-.64-1.27-.63-1.39,0a3,3,0,0,0,.94,2.31l8.7,8.59,2.08,2.05.06.06c.71.69,1.44,1.42,2.18,2.15L400.77,154l2.2,2.18,6.27,6.18c.43.43.85.57,1.12.42a.57.57,0,0,0,.26-.43A3,3,0,0,0,409.69,160.05Z"/><path class="cls-3" d="M455,162.46l-5.61-5.53-2.36-2.34-20.63-20.35L424.11,132l-12.05-11.9c-.65-.63-1.27-.62-1.39,0a3.05,3.05,0,0,0,.94,2.32l8.7,8.59,2.08,2.05.06.05,2.18,2.15c7,6.88,15.36,15.17,21.49,21.21.77.76,1.51,1.48,2.2,2.18,3.79,3.72,6.27,6.18,6.27,6.18.43.43.85.57,1.12.42a.57.57,0,0,0,.26-.44A3,3,0,0,0,455,162.46Z"/><path class="cls-2" d="M318.49,150.33l-5.61-5.54-2.36-2.33L289.89,122.1l-2.33-2.29-12.05-11.9c-.65-.63-1.27-.62-1.39,0a3.05,3.05,0,0,0,.94,2.32l8.7,8.59,2.08,2,.06,0,2.18,2.15c7,6.88,15.36,15.17,21.49,21.21l2.2,2.18c3.79,3.72,6.27,6.18,6.27,6.18.43.43.85.57,1.12.42a.57.57,0,0,0,.26-.44A3,3,0,0,0,318.49,150.33Z"/><path class="cls-3" d="M363.84,152.74l-5.61-5.53-2.36-2.34-20.63-20.35-2.33-2.3-12.05-11.89c-.65-.64-1.27-.62-1.39,0a3,3,0,0,0,.94,2.31l8.7,8.59,2.08,2.06.06,0c.71.69,1.44,1.42,2.18,2.15,7,6.88,15.36,15.17,21.49,21.21.77.76,1.51,1.48,2.2,2.18,3.79,3.72,6.27,6.18,6.27,6.18.43.43.85.57,1.12.41a.53.53,0,0,0,.26-.43A3,3,0,0,0,363.84,152.74Z"/><path class="cls-2" d="M227.29,140.6l-5.61-5.53-2.36-2.34-20.63-20.35-2.33-2.3L184.31,98.19c-.65-.64-1.27-.62-1.39,0a3,3,0,0,0,.94,2.31l8.71,8.6,2.07,2,.06,0,2.18,2.15c7,6.88,15.36,15.17,21.49,21.21.78.76,1.51,1.48,2.2,2.18,3.79,3.72,6.27,6.18,6.27,6.18.43.43.85.57,1.12.41a.53.53,0,0,0,.26-.43A3,3,0,0,0,227.29,140.6Z"/><path class="cls-3" d="M272.64,143,267,137.48l-2.36-2.33L244,114.8l-2.33-2.3-12.05-11.89c-.65-.64-1.27-.62-1.39,0a3,3,0,0,0,.94,2.31l8.7,8.59,2.08,2,.06.06c.71.69,1.44,1.42,2.18,2.15,7,6.88,15.36,15.17,21.49,21.21l2.2,2.17,6.27,6.18c.43.43.85.58,1.12.42a.57.57,0,0,0,.26-.43A3,3,0,0,0,272.64,143Z"/><path class="cls-2" d="M136.09,130.88l-5.61-5.54L128.12,123l-20.63-20.35-2.33-2.3-12-11.89c-.65-.64-1.27-.62-1.39,0a3,3,0,0,0,.94,2.31l8.71,8.59,2.07,2,.06.06c.71.69,1.44,1.42,2.18,2.15,7,6.88,15.36,15.17,21.49,21.21l2.2,2.17,6.27,6.18c.43.44.85.58,1.12.42a.55.55,0,0,0,.26-.43A3,3,0,0,0,136.09,130.88Z"/><path class="cls-3" d="M181.44,133.3l-5.61-5.54-2.36-2.33-20.63-20.35-2.33-2.3-12-11.89c-.65-.64-1.27-.63-1.39,0a3,3,0,0,0,.94,2.31l8.71,8.59,2.07,2,.06.06c.71.69,1.44,1.42,2.18,2.15l21.49,21.2,2.2,2.18,6.27,6.18c.43.43.85.57,1.12.42a.57.57,0,0,0,.26-.43A3,3,0,0,0,181.44,133.3Z"/><path class="cls-2" d="M44.89,121.16l-5.61-5.54-2.36-2.33L16.29,92.94,14,90.64l-12-11.89c-.65-.64-1.27-.63-1.39,0a3,3,0,0,0,.94,2.31l8.71,8.59,2.07,2,.06.06c.71.69,1.44,1.42,2.18,2.15,7,6.88,15.36,15.17,21.49,21.2l2.2,2.18,6.27,6.18c.43.43.85.57,1.12.42a.6.6,0,0,0,.27-.43A3,3,0,0,0,44.89,121.16Z"/><path class="cls-3" d="M90.24,123.58,84.63,118l-2.36-2.33L61.64,95.36l-2.33-2.3L47.26,81.16c-.65-.63-1.27-.62-1.39,0a3.05,3.05,0,0,0,.94,2.32l8.71,8.59,2.07,2,.06.06c.71.69,1.44,1.42,2.18,2.15l21.49,21.2,2.2,2.18,6.27,6.18c.43.43.85.57,1.12.42a.57.57,0,0,0,.26-.43A3,3,0,0,0,90.24,123.58Z"/><path class="cls-2" d="M409.69,111.44l-5.61-5.54-2.36-2.33L381.09,83.22l-2.33-2.3L366.71,69c-.65-.63-1.27-.62-1.39,0a3,3,0,0,0,.94,2.31L375,80,377,82l.06.06c.71.69,1.44,1.42,2.18,2.15l21.49,21.2,2.2,2.18,6.27,6.18c.43.43.85.57,1.12.42a.57.57,0,0,0,.26-.43A3,3,0,0,0,409.69,111.44Z"/><path class="cls-3" d="M455,113.85l-5.61-5.53L447.07,106,426.44,85.63l-2.33-2.29-12.05-11.9c-.65-.63-1.27-.62-1.39,0a3,3,0,0,0,.94,2.31l8.7,8.6,2.08,2,.06,0,2.18,2.15c7,6.88,15.36,15.17,21.49,21.21.77.76,1.51,1.48,2.2,2.18,3.79,3.72,6.27,6.18,6.27,6.18.43.43.85.57,1.12.41a.53.53,0,0,0,.26-.43A3,3,0,0,0,455,113.85Z"/><path class="cls-2" d="M318.49,101.71l-5.61-5.53-2.36-2.34L289.89,73.49l-2.33-2.29L275.51,59.3c-.65-.63-1.27-.62-1.39,0a3.05,3.05,0,0,0,.94,2.32l8.7,8.59,2.08,2,.06,0,2.18,2.15c7,6.88,15.36,15.17,21.49,21.21.77.76,1.51,1.48,2.2,2.18,3.79,3.72,6.27,6.18,6.27,6.18.43.43.85.57,1.12.42a.57.57,0,0,0,.26-.44A3,3,0,0,0,318.49,101.71Z"/><path class="cls-3" d="M363.84,104.13l-5.61-5.54-2.36-2.33L335.24,75.91l-2.33-2.3L320.86,61.72c-.65-.64-1.27-.62-1.39,0a3,3,0,0,0,.94,2.31l8.7,8.59,2.08,2,.06.06c.71.69,1.44,1.42,2.18,2.15,7,6.88,15.36,15.17,21.49,21.21l2.2,2.17c3.79,3.73,6.27,6.19,6.27,6.19.43.43.85.57,1.12.41a.55.55,0,0,0,.26-.43A3,3,0,0,0,363.84,104.13Z"/><path class="cls-2" d="M227.29,92l-5.61-5.53-2.36-2.34L198.69,63.77l-2.33-2.3L184.31,49.58c-.65-.64-1.27-.62-1.39,0a3,3,0,0,0,.94,2.31l8.71,8.59,2.07,2.06.06,0,2.18,2.15c7,6.88,15.36,15.17,21.49,21.21.78.76,1.51,1.48,2.2,2.18,3.79,3.72,6.27,6.18,6.27,6.18.43.43.85.57,1.12.41a.53.53,0,0,0,.26-.43A3,3,0,0,0,227.29,92Z"/><path class="cls-3" d="M272.64,94.41,267,88.87l-2.36-2.33L244,66.19l-2.33-2.3L229.66,52c-.65-.64-1.27-.63-1.39,0a3,3,0,0,0,.94,2.31l8.7,8.59L240,65l.06.06c.71.69,1.44,1.42,2.18,2.15,7,6.88,15.36,15.17,21.49,21.2l2.2,2.18,6.27,6.18c.43.43.85.58,1.12.42a.57.57,0,0,0,.26-.43A3,3,0,0,0,272.64,94.41Z"/><path class="cls-2" d="M136.09,82.27l-5.61-5.54-2.36-2.33L107.49,54.05l-2.33-2.3-12-11.89c-.65-.64-1.27-.62-1.39,0a3,3,0,0,0,.94,2.31l8.71,8.59,2.07,2,.06.06c.71.69,1.44,1.42,2.18,2.15,7,6.88,15.36,15.17,21.49,21.21l2.2,2.17,6.27,6.18c.43.44.85.58,1.12.42a.57.57,0,0,0,.26-.43A3,3,0,0,0,136.09,82.27Z"/><path class="cls-3" d="M181.44,84.69l-5.61-5.54-2.36-2.33L152.84,56.47l-2.33-2.3-12-11.89c-.65-.64-1.27-.63-1.39,0a3,3,0,0,0,.94,2.31l8.71,8.59,2.07,2,.06.06c.71.69,1.44,1.42,2.18,2.15l21.49,21.2,2.2,2.18L181,87c.43.43.85.57,1.12.42a.57.57,0,0,0,.26-.43A3,3,0,0,0,181.44,84.69Z"/><path class="cls-2" d="M44.89,72.55,39.28,67l-2.36-2.33L16.29,44.33,14,42l-12-11.89c-.65-.64-1.27-.63-1.39,0a3,3,0,0,0,.94,2.31l8.71,8.59,2.07,2,.06.06c.71.69,1.44,1.42,2.18,2.15L36,66.52l2.2,2.18,6.27,6.18c.43.43.85.57,1.12.42a.6.6,0,0,0,.27-.43A3,3,0,0,0,44.89,72.55Z"/><path class="cls-3" d="M90.24,75l-5.61-5.54L82.27,67.1,61.64,46.74l-2.33-2.29L47.26,32.55c-.65-.63-1.27-.62-1.39,0a3.05,3.05,0,0,0,.94,2.32l8.71,8.59,2.07,2.05.06,0,2.18,2.15c7,6.88,15.36,15.17,21.49,21.21.78.76,1.51,1.49,2.2,2.18l6.27,6.18c.43.43.85.57,1.12.42a.57.57,0,0,0,.26-.44A3,3,0,0,0,90.24,75Z"/><path class="cls-2" d="M409.69,62.83l-5.61-5.54L401.72,55,381.09,34.61l-2.33-2.3-12.05-11.9c-.65-.63-1.27-.62-1.39,0a3.05,3.05,0,0,0,.94,2.32l8.7,8.59L377,33.39l.06.06c.71.69,1.44,1.42,2.18,2.15l21.49,21.2L403,59l6.27,6.18c.43.43.85.57,1.12.42a.57.57,0,0,0,.26-.43A3,3,0,0,0,409.69,62.83Z"/><path class="cls-3" d="M455,65.24l-5.61-5.53-2.36-2.34L426.44,37l-2.33-2.3L412.06,22.83c-.65-.64-1.27-.62-1.39,0a3,3,0,0,0,.94,2.31l8.7,8.6,2.08,2.05.06,0L424.63,38c7,6.88,15.36,15.17,21.49,21.21.77.76,1.51,1.48,2.2,2.18,3.79,3.72,6.27,6.18,6.27,6.18.43.43.85.57,1.12.41a.53.53,0,0,0,.26-.43A3,3,0,0,0,455,65.24Z"/><path class="cls-2" d="M318.49,53.1l-5.61-5.53-2.36-2.34L289.89,24.88l-2.33-2.29-12.05-11.9c-.65-.63-1.27-.62-1.39,0a3.05,3.05,0,0,0,.94,2.32l8.7,8.59,2.08,2.05.06,0,2.18,2.15c7,6.88,15.36,15.17,21.49,21.21.77.76,1.51,1.48,2.2,2.18C315.56,53,318,55.44,318,55.44c.43.43.85.57,1.12.41a.53.53,0,0,0,.26-.43A3,3,0,0,0,318.49,53.1Z"/><path class="cls-3" d="M363.84,55.52,358.23,50l-2.36-2.33L335.24,27.3,332.91,25,320.86,13.11c-.65-.64-1.27-.62-1.39,0a3,3,0,0,0,.94,2.31l8.7,8.59,2.08,2,.06.06c.71.69,1.44,1.42,2.18,2.15,7,6.88,15.36,15.17,21.49,21.21l2.2,2.17,6.27,6.18c.43.44.85.58,1.12.42a.55.55,0,0,0,.26-.43A3,3,0,0,0,363.84,55.52Z"/><path class="cls-2" d="M227.29,43.38l-5.61-5.53-2.36-2.34L198.69,15.16l-2.33-2.3L184.31,1c-.65-.64-1.27-.62-1.39,0a3,3,0,0,0,.94,2.31l8.71,8.59,2.07,2,.06.06c.71.69,1.44,1.42,2.18,2.15,7,6.88,15.36,15.17,21.49,21.21.78.76,1.51,1.48,2.2,2.18,3.79,3.72,6.27,6.18,6.27,6.18.43.43.85.57,1.12.41a.55.55,0,0,0,.26-.43A3,3,0,0,0,227.29,43.38Z"/><path class="cls-3" d="M272.64,45.8,267,40.26l-2.36-2.33L244,17.58l-2.33-2.3L229.66,3.39c-.65-.64-1.27-.63-1.39,0a3,3,0,0,0,.94,2.31l8.7,8.59,2.08,2,.06.06c.71.69,1.44,1.42,2.18,2.15,7,6.88,15.36,15.17,21.49,21.2l2.2,2.18,6.27,6.18c.43.43.85.57,1.12.42a.57.57,0,0,0,.26-.43A3,3,0,0,0,272.64,45.8Z"/><path class="cls-2" d="M136.09,33.66l-5.61-5.54-2.36-2.33L107.49,5.44l-2.33-2.3-12-11.89c-.65-.64-1.27-.62-1.39,0a3,3,0,0,0,.94,2.31l8.71,8.59,2.07,2.05.06.06c.71.69,1.44,1.42,2.18,2.15,7,6.88,15.36,15.17,21.49,21.21l2.2,2.17L135.64,36c.43.43.85.58,1.12.42A.57.57,0,0,0,137,36,3,3,0,0,0,136.09,33.66Z"/><path class="cls-3" d="M181.44,36.08l-5.61-5.54-2.36-2.33L152.84,7.86l-2.33-2.3-12-11.9c-.65-.63-1.27-.62-1.39,0A3,3,0,0,0,138-4l8.71,8.59,2.07,2.05.06.06c.71.69,1.44,1.42,2.18,2.15l21.49,21.2,2.2,2.18L181,38.41c.43.43.85.57,1.12.42a.57.57,0,0,0,.26-.43A3,3,0,0,0,181.44,36.08Z"/><path class="cls-2" d="M44.89,23.94,39.28,18.4l-2.36-2.33L16.29-4.28,14-6.58l-12-11.89c-.65-.64-1.27-.63-1.39,0a3,3,0,0,0,.94,2.31l8.71,8.59L12.24-5.5l.06.06C13-4.75,13.74-4,14.48-3.29L36,17.91l2.2,2.18,6.27,6.18c.43.43.85.57,1.12.42a.6.6,0,0,0,.27-.43A3,3,0,0,0,44.89,23.94Z"/><path class="cls-3" d="M90.24,26.35l-5.61-5.53-2.36-2.34L61.64-1.87,59.31-4.16,47.26-16.06c-.65-.63-1.27-.62-1.39,0a3.05,3.05,0,0,0,.94,2.32l8.71,8.59,2.07,2.05.06.05L59.83-.88c7,6.88,15.36,15.17,21.49,21.21.78.76,1.51,1.48,2.2,2.18,3.79,3.72,6.27,6.18,6.27,6.18.43.43.85.57,1.12.42a.57.57,0,0,0,.26-.44A3,3,0,0,0,90.24,26.35Z"/><path class="cls-2" d="M409.69,14.22l-5.61-5.54-2.36-2.33L381.09-14l-2.33-2.29L366.71-28.2c-.65-.63-1.27-.62-1.39,0a3.05,3.05,0,0,0,.94,2.32l8.7,8.59,2.08,2,.06.06L379.28-13c7,6.88,15.36,15.17,21.49,21.21l2.2,2.18,6.27,6.18c.43.43.85.57,1.12.42a.57.57,0,0,0,.26-.44A3,3,0,0,0,409.69,14.22Z"/><path class="cls-3" d="M455,16.63l-5.61-5.53-2.36-2.34L426.44-11.59l-2.33-2.3L412.06-25.78c-.65-.64-1.27-.62-1.39,0a3,3,0,0,0,.94,2.31l8.7,8.59,2.08,2.06.06.05,2.18,2.15c7,6.88,15.36,15.17,21.49,21.21.77.76,1.51,1.48,2.2,2.18,3.79,3.72,6.27,6.18,6.27,6.18.43.43.85.57,1.12.41A.53.53,0,0,0,456,19,3,3,0,0,0,455,16.63Z"/><path class="cls-2" d="M318.49,4.49,312.88-1l-2.36-2.34L289.89-23.73,287.56-26,275.51-37.92c-.65-.64-1.27-.62-1.39,0a3,3,0,0,0,.94,2.31l8.7,8.6,2.08,2,.06.05,2.18,2.15c7,6.88,15.36,15.17,21.49,21.21.77.76,1.51,1.48,2.2,2.18C315.56,4.37,318,6.83,318,6.83c.43.43.85.57,1.12.41a.53.53,0,0,0,.26-.43A3,3,0,0,0,318.49,4.49Z"/><path class="cls-3" d="M363.84,6.91l-5.61-5.54L355.87-1,335.24-21.31l-2.33-2.3L320.86-35.5c-.65-.64-1.27-.62-1.39,0a3,3,0,0,0,.94,2.31l8.7,8.59,2.08,2,.06.06c.71.69,1.44,1.42,2.18,2.15,7,6.88,15.36,15.17,21.49,21.21l2.2,2.17,6.27,6.18c.43.44.85.58,1.12.42a.57.57,0,0,0,.26-.43A3,3,0,0,0,363.84,6.91Z"/></pattern></defs><g id="Capa_2" data-name="Capa 2"><g id="Capa_1-2" data-name="Capa 1"><rect class="cls-4" width="246.77" height="192.47"/></g></g></svg>