<svg xmlns="http://www.w3.org/2000/svg" xmlns:xlink="http://www.w3.org/1999/xlink" width="800" zoomAndPan="magnify" viewBox="0 0 600 449.999984" height="600" preserveAspectRatio="xMidYMid meet" version="1.0"><defs><linearGradient x1="0" gradientTransform="matrix(0.75, 0, 0, 0.75, 0.0000108667, 0)" y1="0" x2="799.999967" gradientUnits="userSpaceOnUse" y2="0" id="ffa8add640"><stop stop-opacity="1" stop-color="rgb(97.999573%, 45.899963%, 15.699768%)" offset="0"/><stop stop-opacity="1" stop-color="rgb(97.990417%, 46.092224%, 15.843201%)" offset="0.015625"/><stop stop-opacity="1" stop-color="rgb(97.973633%, 46.476746%, 16.130066%)" offset="0.03125"/><stop stop-opacity="1" stop-color="rgb(97.955322%, 46.862793%, 16.416931%)" offset="0.046875"/><stop stop-opacity="1" stop-color="rgb(97.938538%, 47.24884%, 16.705322%)" offset="0.0625"/><stop stop-opacity="1" stop-color="rgb(97.921753%, 47.634888%, 16.992188%)" offset="0.078125"/><stop stop-opacity="1" stop-color="rgb(97.903442%, 48.020935%, 17.280579%)" offset="0.09375"/><stop stop-opacity="1" stop-color="rgb(97.886658%, 48.406982%, 17.567444%)" offset="0.109375"/><stop stop-opacity="1" stop-color="rgb(97.869873%, 48.79303%, 17.855835%)" offset="0.125"/><stop stop-opacity="1" stop-color="rgb(97.853088%, 49.179077%, 18.1427%)" offset="0.140625"/><stop stop-opacity="1" stop-color="rgb(97.834778%, 49.565125%, 18.429565%)" offset="0.15625"/><stop stop-opacity="1" stop-color="rgb(97.817993%, 49.951172%, 18.717957%)" offset="0.171875"/><stop stop-opacity="1" stop-color="rgb(97.801208%, 50.337219%, 19.004822%)" offset="0.1875"/><stop stop-opacity="1" stop-color="rgb(97.784424%, 50.723267%, 19.293213%)" offset="0.203125"/><stop stop-opacity="1" stop-color="rgb(97.766113%, 51.109314%, 19.580078%)" offset="0.21875"/><stop stop-opacity="1" stop-color="rgb(97.749329%, 51.495361%, 19.866943%)" offset="0.234375"/><stop stop-opacity="1" stop-color="rgb(97.732544%, 51.879883%, 20.155334%)" offset="0.25"/><stop stop-opacity="1" stop-color="rgb(97.715759%, 52.26593%, 20.4422%)" offset="0.265625"/><stop stop-opacity="1" stop-color="rgb(97.697449%, 52.651978%, 20.730591%)" offset="0.28125"/><stop stop-opacity="1" stop-color="rgb(97.680664%, 53.038025%, 21.017456%)" offset="0.296875"/><stop stop-opacity="1" stop-color="rgb(97.663879%, 53.424072%, 21.305847%)" offset="0.3125"/><stop stop-opacity="1" stop-color="rgb(97.647095%, 53.81012%, 21.592712%)" offset="0.328125"/><stop stop-opacity="1" stop-color="rgb(97.628784%, 54.196167%, 21.879578%)" offset="0.34375"/><stop stop-opacity="1" stop-color="rgb(97.612%, 54.582214%, 22.167969%)" offset="0.359375"/><stop stop-opacity="1" stop-color="rgb(97.595215%, 54.968262%, 22.454834%)" offset="0.375"/><stop stop-opacity="1" stop-color="rgb(97.576904%, 55.354309%, 22.743225%)" offset="0.390625"/><stop stop-opacity="1" stop-color="rgb(97.56012%, 55.740356%, 23.03009%)" offset="0.40625"/><stop stop-opacity="1" stop-color="rgb(97.543335%, 56.126404%, 23.316956%)" offset="0.421875"/><stop stop-opacity="1" stop-color="rgb(97.52655%, 56.512451%, 23.605347%)" offset="0.4375"/><stop stop-opacity="1" stop-color="rgb(97.50824%, 56.898499%, 23.892212%)" offset="0.453125"/><stop stop-opacity="1" stop-color="rgb(97.491455%, 57.28302%, 24.180603%)" offset="0.46875"/><stop stop-opacity="1" stop-color="rgb(97.47467%, 57.669067%, 24.467468%)" offset="0.484375"/><stop stop-opacity="1" stop-color="rgb(97.457886%, 58.055115%, 24.755859%)" offset="0.5"/><stop stop-opacity="1" stop-color="rgb(97.439575%, 58.441162%, 25.042725%)" offset="0.515625"/><stop stop-opacity="1" stop-color="rgb(97.422791%, 58.827209%, 25.32959%)" offset="0.53125"/><stop stop-opacity="1" stop-color="rgb(97.406006%, 59.213257%, 25.617981%)" offset="0.546875"/><stop stop-opacity="1" stop-color="rgb(97.389221%, 59.599304%, 25.904846%)" offset="0.5625"/><stop stop-opacity="1" stop-color="rgb(97.370911%, 59.985352%, 26.193237%)" offset="0.578125"/><stop stop-opacity="1" stop-color="rgb(97.354126%, 60.371399%, 26.480103%)" offset="0.59375"/><stop stop-opacity="1" stop-color="rgb(97.337341%, 60.757446%, 26.766968%)" offset="0.609375"/><stop stop-opacity="1" stop-color="rgb(97.319031%, 61.143494%, 27.055359%)" offset="0.625"/><stop stop-opacity="1" stop-color="rgb(97.302246%, 61.529541%, 27.342224%)" offset="0.640625"/><stop stop-opacity="1" stop-color="rgb(97.285461%, 61.915588%, 27.630615%)" offset="0.65625"/><stop stop-opacity="1" stop-color="rgb(97.268677%, 62.30011%, 27.91748%)" offset="0.671875"/><stop stop-opacity="1" stop-color="rgb(97.250366%, 62.686157%, 28.205872%)" offset="0.6875"/><stop stop-opacity="1" stop-color="rgb(97.233582%, 63.072205%, 28.492737%)" offset="0.703125"/><stop stop-opacity="1" stop-color="rgb(97.216797%, 63.458252%, 28.779602%)" offset="0.71875"/><stop stop-opacity="1" stop-color="rgb(97.200012%, 63.844299%, 29.067993%)" offset="0.734375"/><stop stop-opacity="1" stop-color="rgb(97.181702%, 64.230347%, 29.354858%)" offset="0.75"/><stop stop-opacity="1" stop-color="rgb(97.164917%, 64.616394%, 29.64325%)" offset="0.765625"/><stop stop-opacity="1" stop-color="rgb(97.148132%, 65.002441%, 29.930115%)" offset="0.78125"/><stop stop-opacity="1" stop-color="rgb(97.131348%, 65.388489%, 30.21698%)" offset="0.796875"/><stop stop-opacity="1" stop-color="rgb(97.113037%, 65.774536%, 30.505371%)" offset="0.8125"/><stop stop-opacity="1" stop-color="rgb(97.096252%, 66.160583%, 30.792236%)" offset="0.828125"/><stop stop-opacity="1" stop-color="rgb(97.079468%, 66.546631%, 31.080627%)" offset="0.84375"/><stop stop-opacity="1" stop-color="rgb(97.062683%, 66.932678%, 31.367493%)" offset="0.859375"/><stop stop-opacity="1" stop-color="rgb(97.044373%, 67.318726%, 31.655884%)" offset="0.875"/><stop stop-opacity="1" stop-color="rgb(97.027588%, 67.703247%, 31.942749%)" offset="0.890625"/><stop stop-opacity="1" stop-color="rgb(97.010803%, 68.089294%, 32.229614%)" offset="0.90625"/><stop stop-opacity="1" stop-color="rgb(96.992493%, 68.475342%, 32.518005%)" offset="0.921875"/><stop stop-opacity="1" stop-color="rgb(96.975708%, 68.861389%, 32.804871%)" offset="0.9375"/><stop stop-opacity="1" stop-color="rgb(96.958923%, 69.247437%, 33.093262%)" offset="0.953125"/><stop stop-opacity="1" stop-color="rgb(96.942139%, 69.633484%, 33.380127%)" offset="0.96875"/><stop stop-opacity="1" stop-color="rgb(96.923828%, 70.019531%, 33.666992%)" offset="0.984375"/><stop stop-opacity="1" stop-color="rgb(96.907043%, 70.405579%, 33.955383%)" offset="1"/></linearGradient><clipPath id="dc9c0ef5ca"><path d="M 232 75 L 469 75 L 469 414 L 232 414 Z M 232 75 " clip-rule="nonzero"/></clipPath><clipPath id="516fe13484"><path d="M 399.609375 -202.160156 L 691.0625 -39.542969 L 305.167969 652.082031 L 13.714844 489.46875 Z M 399.609375 -202.160156 " clip-rule="nonzero"/></clipPath><clipPath id="47d5625877"><path d="M 399.609375 -202.160156 L 691.0625 -39.542969 L 305.167969 652.082031 L 13.714844 489.46875 Z M 399.609375 -202.160156 " clip-rule="nonzero"/></clipPath><clipPath id="fe58887bcb"><path d="M 399.609375 -202.160156 L 691.0625 -39.542969 L 305.167969 652.082031 L 13.714844 489.46875 Z M 399.609375 -202.160156 " clip-rule="nonzero"/></clipPath><clipPath id="2e224e6171"><path d="M 363 0 L 593 0 L 593 170 L 363 170 Z M 363 0 " clip-rule="nonzero"/></clipPath><clipPath id="cb89d8c33d"><path d="M 399.609375 -202.160156 L 691.0625 -39.542969 L 305.167969 652.082031 L 13.714844 489.46875 Z M 399.609375 -202.160156 " clip-rule="nonzero"/></clipPath><clipPath id="933bdbfad8"><path d="M 399.609375 -202.160156 L 691.0625 -39.542969 L 305.167969 652.082031 L 13.714844 489.46875 Z M 399.609375 -202.160156 " clip-rule="nonzero"/></clipPath><clipPath id="14f296a3f4"><path d="M 399.609375 -202.160156 L 691.0625 -39.542969 L 305.167969 652.082031 L 13.714844 489.46875 Z M 399.609375 -202.160156 " clip-rule="nonzero"/></clipPath><clipPath id="2e475ab91b"><path d="M 238 28 L 476 28 L 476 366 L 238 366 Z M 238 28 " clip-rule="nonzero"/></clipPath><clipPath id="636e3cd436"><path d="M 399.609375 -202.160156 L 691.0625 -39.542969 L 305.167969 652.082031 L 13.714844 489.46875 Z M 399.609375 -202.160156 " clip-rule="nonzero"/></clipPath><clipPath id="6033a3921c"><path d="M 399.609375 -202.160156 L 691.0625 -39.542969 L 305.167969 652.082031 L 13.714844 489.46875 Z M 399.609375 -202.160156 " clip-rule="nonzero"/></clipPath><clipPath id="9ceadd5ceb"><path d="M 399.609375 -202.160156 L 691.0625 -39.542969 L 305.167969 652.082031 L 13.714844 489.46875 Z M 399.609375 -202.160156 " clip-rule="nonzero"/></clipPath><clipPath id="7d7241cc39"><path d="M 424 28 L 467 28 L 467 72 L 424 72 Z M 424 28 " clip-rule="nonzero"/></clipPath><clipPath id="35adbc041d"><path d="M 399.609375 -202.160156 L 691.0625 -39.542969 L 305.167969 652.082031 L 13.714844 489.46875 Z M 399.609375 -202.160156 " clip-rule="nonzero"/></clipPath><clipPath id="98c55c1ec7"><path d="M 399.609375 -202.160156 L 691.0625 -39.542969 L 305.167969 652.082031 L 13.714844 489.46875 Z M 399.609375 -202.160156 " clip-rule="nonzero"/></clipPath><clipPath id="6b209d41c0"><path d="M 399.609375 -202.160156 L 691.0625 -39.542969 L 305.167969 652.082031 L 13.714844 489.46875 Z M 399.609375 -202.160156 " clip-rule="nonzero"/></clipPath><clipPath id="db7437dddf"><path d="M 112 276 L 345 276 L 345 450 L 112 450 Z M 112 276 " clip-rule="nonzero"/></clipPath><clipPath id="e255e6b262"><path d="M 399.609375 -202.160156 L 691.0625 -39.542969 L 305.167969 652.082031 L 13.714844 489.46875 Z M 399.609375 -202.160156 " clip-rule="nonzero"/></clipPath><clipPath id="9ca22bca5d"><path d="M 399.609375 -202.160156 L 691.0625 -39.542969 L 305.167969 652.082031 L 13.714844 489.46875 Z M 399.609375 -202.160156 " clip-rule="nonzero"/></clipPath><clipPath id="4e2f71fdc1"><path d="M 399.609375 -202.160156 L 691.0625 -39.542969 L 305.167969 652.082031 L 13.714844 489.46875 Z M 399.609375 -202.160156 " clip-rule="nonzero"/></clipPath><clipPath id="70d128d0e7"><path d="M 226 99 L 419 99 L 419 422 L 226 422 Z M 226 99 " clip-rule="nonzero"/></clipPath><clipPath id="e5e6a4e3d6"><path d="M 399.609375 -202.160156 L 691.0625 -39.542969 L 305.167969 652.082031 L 13.714844 489.46875 Z M 399.609375 -202.160156 " clip-rule="nonzero"/></clipPath><clipPath id="ef96a76099"><path d="M 399.609375 -202.160156 L 691.0625 -39.542969 L 305.167969 652.082031 L 13.714844 489.46875 Z M 399.609375 -202.160156 " clip-rule="nonzero"/></clipPath><clipPath id="2e445cec3d"><path d="M 399.609375 -202.160156 L 691.0625 -39.542969 L 305.167969 652.082031 L 13.714844 489.46875 Z M 399.609375 -202.160156 " clip-rule="nonzero"/></clipPath></defs><rect x="-60" width="720" fill="#ffffff" y="-44.999998" height="539.99998" fill-opacity="1"/><rect x="-60" width="720" fill="#ffffff" y="-44.999998" height="539.99998" fill-opacity="1"/><rect x="-60" fill="url(#ffa8add640)" width="720" y="-44.999998" height="539.99998"/><g clip-path="url(#dc9c0ef5ca)"><g clip-path="url(#516fe13484)"><g clip-path="url(#47d5625877)"><g clip-path="url(#fe58887bcb)"><path fill="#1d1d1b" d="M 457.921875 333.648438 C 455.789062 332.210938 453.476562 331.171875 450.988281 330.539062 C 448.496094 329.902344 445.96875 329.707031 443.40625 329.945312 C 441.222656 330.507812 439.199219 331.429688 437.339844 332.707031 C 435.480469 333.988281 433.898438 335.550781 432.589844 337.390625 C 427.816406 343.929688 422.621094 350.109375 417 355.933594 C 410.660156 362.667969 403.320312 368.03125 394.984375 372.027344 C 391.179688 373.730469 387.234375 374.988281 383.144531 375.796875 C 379.058594 376.605469 374.929688 376.945312 370.765625 376.816406 C 368.878906 376.898438 366.941406 376.8125 365.007812 376.726562 C 350.554688 373.285156 336.628906 368.355469 323.230469 361.929688 C 320.410156 360.78125 317.65625 359.476562 314.976562 358.023438 C 312.296875 356.570312 309.707031 354.972656 307.203125 353.230469 C 304.699219 351.492188 302.300781 349.617188 300 347.613281 C 297.703125 345.609375 295.523438 343.484375 293.460938 341.238281 C 291.398438 338.992188 289.464844 336.640625 287.660156 334.183594 C 285.855469 331.722656 284.195312 329.171875 282.671875 326.53125 C 281.148438 323.886719 279.773438 321.171875 278.550781 318.375 C 277.328125 315.582031 276.261719 312.730469 275.351562 309.816406 C 269.191406 289.355469 273.839844 265.273438 289.296875 237.574219 L 373.816406 86.09375 C 363.242188 80.550781 352.015625 77.128906 340.148438 75.820312 C 337.550781 75.648438 335.0625 75.535156 332.621094 75.59375 L 253.714844 217.011719 C 250.273438 222.550781 247.21875 228.292969 244.558594 234.246094 C 241.898438 240.199219 239.65625 246.304688 237.828125 252.566406 C 236 258.824219 234.605469 265.175781 233.648438 271.625 C 232.6875 278.074219 232.167969 284.554688 232.09375 291.074219 C 232.210938 296.351562 232.742188 301.585938 233.695312 306.777344 C 234.648438 311.96875 236.003906 317.050781 237.769531 322.023438 C 239.53125 326.996094 241.679688 331.800781 244.210938 336.429688 C 246.742188 341.058594 249.625 345.457031 252.855469 349.625 C 259.617188 358.21875 267.175781 366.042969 275.535156 373.09375 C 283.890625 380.148438 292.875 386.28125 302.480469 391.5 C 312.847656 397.148438 323.652344 401.773438 334.894531 405.375 C 346.136719 408.972656 357.617188 411.488281 369.335938 412.910156 C 374.175781 413.328125 379.023438 413.40625 383.875 413.140625 C 388.726562 412.878906 393.535156 412.277344 398.304688 411.335938 C 403.070312 410.394531 407.75 409.128906 412.339844 407.53125 C 416.929688 405.933594 421.386719 404.023438 425.710938 401.796875 C 429.691406 399.800781 433.503906 397.511719 437.144531 394.941406 C 440.785156 392.367188 444.210938 389.535156 447.425781 386.445312 C 450.640625 383.355469 453.601562 380.042969 456.316406 376.503906 C 459.03125 372.96875 461.46875 369.25 463.621094 365.34375 C 464.636719 363.949219 465.507812 362.472656 466.238281 360.910156 C 466.96875 359.347656 467.546875 357.730469 467.96875 356.058594 C 468.390625 354.386719 468.652344 352.691406 468.753906 350.96875 C 468.851562 349.25 468.789062 347.535156 468.5625 345.824219 C 468.117188 344.511719 467.550781 343.25 466.859375 342.050781 C 466.164062 340.847656 465.363281 339.722656 464.453125 338.679688 C 463.539062 337.632812 462.535156 336.6875 461.433594 335.839844 C 460.335938 334.996094 459.164062 334.261719 457.921875 333.648438 Z M 457.921875 333.648438 " fill-opacity="1" fill-rule="nonzero"/></g></g></g></g><g clip-path="url(#2e224e6171)"><g clip-path="url(#cb89d8c33d)"><g clip-path="url(#933bdbfad8)"><g clip-path="url(#14f296a3f4)"><path fill="#1d1d1b" d="M 403.847656 41.410156 C 390.988281 34.453125 377.421875 29.390625 363.144531 26.222656 C 367.429688 19.980469 372.429688 14.378906 378.148438 9.421875 C 383.867188 4.464844 390.121094 0.308594 396.902344 -3.042969 C 401.5 -5.65625 406.269531 -7.902344 411.210938 -9.78125 C 416.152344 -11.660156 421.207031 -13.148438 426.378906 -14.246094 C 431.546875 -15.347656 436.769531 -16.042969 442.046875 -16.339844 C 447.324219 -16.632812 452.589844 -16.519531 457.851562 -16.003906 C 468.800781 -14.769531 479.511719 -12.425781 489.976562 -8.976562 C 500.441406 -5.527344 510.445312 -1.042969 519.980469 4.476562 C 530.460938 10.023438 540.167969 16.691406 549.105469 24.480469 C 558.042969 32.273438 565.976562 40.980469 572.902344 50.605469 C 575.714844 54.519531 578.25 58.609375 580.507812 62.867188 C 582.765625 67.128906 584.730469 71.519531 586.394531 76.046875 C 588.0625 80.570312 589.414062 85.1875 590.457031 89.898438 C 591.5 94.605469 592.21875 99.363281 592.621094 104.171875 C 592.953125 108.542969 592.96875 112.914062 592.664062 117.285156 C 592.359375 121.660156 591.738281 125.988281 590.800781 130.269531 C 589.863281 134.554688 588.617188 138.746094 587.070312 142.847656 C 585.519531 146.949219 583.679688 150.914062 581.550781 154.75 C 580.941406 156.324219 580.175781 157.824219 579.261719 159.246094 C 578.34375 160.664062 577.292969 161.976562 576.109375 163.183594 C 574.925781 164.390625 573.628906 165.460938 572.226562 166.402344 C 570.824219 167.34375 569.339844 168.132812 567.773438 168.769531 C 565.105469 169.183594 562.453125 169.109375 559.8125 168.539062 C 557.171875 167.972656 554.722656 166.953125 552.460938 165.476562 C 551.171875 164.925781 549.945312 164.253906 548.789062 163.460938 C 547.628906 162.671875 546.554688 161.777344 545.570312 160.777344 C 544.585938 159.777344 543.707031 158.691406 542.933594 157.519531 C 542.15625 156.347656 541.503906 155.113281 540.96875 153.816406 C 540.332031 151.894531 540.066406 149.917969 540.167969 147.894531 C 540.269531 145.871094 540.734375 143.933594 541.5625 142.085938 C 545.066406 135.5 547.65625 128.574219 549.328125 121.304688 C 551.609375 112.164062 552.03125 102.941406 550.59375 93.632812 C 549.6875 88.257812 548.125 83.082031 545.914062 78.097656 C 543.703125 73.117188 540.90625 68.488281 537.53125 64.210938 C 532.753906 58.425781 527.4375 53.183594 521.585938 48.484375 C 515.734375 43.785156 509.46875 39.726562 502.785156 36.3125 C 500.296875 34.6875 497.738281 33.1875 495.097656 31.820312 C 492.460938 30.449219 489.761719 29.21875 487.003906 28.121094 C 484.242188 27.023438 481.433594 26.066406 478.574219 25.25 C 475.71875 24.433594 472.828125 23.761719 469.902344 23.238281 C 466.976562 22.710938 464.035156 22.332031 461.070312 22.101562 C 458.109375 21.875 455.140625 21.792969 452.167969 21.859375 C 449.199219 21.925781 446.238281 22.144531 443.289062 22.507812 C 440.339844 22.875 437.414062 23.386719 434.515625 24.042969 C 431.558594 24.558594 428.664062 25.320312 425.839844 26.332031 C 423.011719 27.347656 420.292969 28.59375 417.679688 30.070312 C 415.066406 31.550781 412.601562 33.242188 410.277344 35.148438 C 407.957031 37.050781 405.8125 39.140625 403.847656 41.410156 Z M 403.847656 41.410156 " fill-opacity="1" fill-rule="nonzero"/></g></g></g></g><g clip-path="url(#2e475ab91b)"><g clip-path="url(#636e3cd436)"><g clip-path="url(#6033a3921c)"><g clip-path="url(#9ceadd5ceb)"><path fill="#1d1d1b" d="M 475.582031 152.378906 C 475.4375 147.050781 474.886719 141.769531 473.929688 136.527344 C 472.972656 131.285156 471.617188 126.148438 469.867188 121.117188 C 468.121094 116.085938 465.996094 111.21875 463.496094 106.511719 C 461 101.808594 458.15625 97.324219 454.964844 93.058594 C 450.851562 87.207031 446.320312 81.699219 441.367188 76.535156 C 435.414062 70.570312 428.953125 65.214844 421.984375 60.46875 C 416.695312 56.542969 411.171875 52.984375 405.402344 49.800781 L 399.890625 46.722656 C 387.03125 39.765625 373.464844 34.703125 359.1875 31.535156 C 352.457031 29.890625 345.628906 28.917969 338.707031 28.617188 C 333.894531 28.28125 329.085938 28.265625 324.273438 28.582031 C 319.460938 28.894531 314.691406 29.53125 309.96875 30.488281 C 305.242188 31.449219 300.601562 32.722656 296.046875 34.308594 C 291.492188 35.898438 287.066406 37.785156 282.765625 39.972656 C 278.691406 42.140625 274.796875 44.597656 271.082031 47.339844 C 267.367188 50.082031 263.875 53.082031 260.605469 56.34375 C 257.335938 59.601562 254.320312 63.082031 251.5625 66.785156 C 248.804688 70.492188 246.335938 74.375 244.148438 78.445312 C 243.125 79.832031 242.242188 81.308594 241.5 82.867188 C 240.761719 84.429688 240.179688 86.046875 239.757812 87.71875 C 239.332031 89.394531 239.074219 91.09375 238.984375 92.816406 C 238.890625 94.539062 238.96875 96.257812 239.210938 97.964844 C 240.296875 100.457031 241.78125 102.675781 243.664062 104.632812 C 245.550781 106.585938 247.714844 108.152344 250.164062 109.328125 C 252.480469 110.910156 255.007812 112.011719 257.746094 112.632812 C 260.484375 113.25 263.242188 113.347656 266.015625 112.921875 C 268.007812 112.402344 269.847656 111.550781 271.53125 110.367188 C 273.21875 109.179688 274.640625 107.738281 275.808594 106.039062 C 279.644531 99.453125 284.257812 93.46875 289.652344 88.082031 C 296.3125 81.460938 303.941406 76.257812 312.535156 72.472656 C 316.398438 70.804688 320.394531 69.570312 324.527344 68.765625 C 328.65625 67.957031 332.824219 67.601562 337.027344 67.695312 C 339.46875 67.636719 341.957031 67.75 344.554688 67.921875 C 356.425781 69.230469 367.648438 72.652344 378.222656 78.195312 L 386.546875 82.835938 C 392.59375 86.148438 398.3125 89.957031 403.703125 94.253906 C 410.699219 99.417969 416.738281 105.53125 421.816406 112.589844 C 426.917969 119.371094 430.582031 126.855469 432.816406 135.042969 C 438.660156 155.898438 433.777344 180.226562 418.171875 208.03125 L 336.667969 354.105469 C 342.09375 357.066406 347.75 359.488281 353.640625 361.367188 C 359.53125 363.242188 365.542969 364.542969 371.683594 365.269531 C 373.617188 365.355469 375.554688 365.441406 377.441406 365.359375 L 454.113281 227.945312 C 457.585938 222.285156 460.65625 216.414062 463.324219 210.335938 C 465.992188 204.253906 468.234375 198.023438 470.046875 191.636719 C 471.863281 185.25 473.230469 178.769531 474.160156 172.195312 C 475.085938 165.621094 475.5625 159.015625 475.582031 152.378906 Z M 475.582031 152.378906 " fill-opacity="1" fill-rule="nonzero"/></g></g></g></g><g clip-path="url(#7d7241cc39)"><g clip-path="url(#35adbc041d)"><g clip-path="url(#98c55c1ec7)"><g clip-path="url(#6b209d41c0)"><path fill="#1d1d1b" d="M 466.847656 29.597656 C 449.398438 60.867188 443.726562 71.039062 443.726562 71.039062 C 437.769531 65.074219 431.308594 59.71875 424.34375 54.976562 L 438.46875 29.65625 C 442.835938 28.660156 447.257812 28.128906 451.734375 28.070312 C 456.210938 28.007812 460.644531 28.417969 465.03125 29.292969 C 465.605469 29.59375 466.210938 29.695312 466.847656 29.597656 Z M 466.847656 29.597656 " fill-opacity="1" fill-rule="nonzero"/></g></g></g></g><g clip-path="url(#db7437dddf)"><g clip-path="url(#e255e6b262)"><g clip-path="url(#9ca22bca5d)"><g clip-path="url(#4e2f71fdc1)"><path fill="#1d1d1b" d="M 304.980469 403.535156 C 302.964844 406.363281 300.6875 408.960938 298.152344 411.332031 C 295.617188 413.707031 292.875 415.804688 289.921875 417.628906 C 286.96875 419.453125 283.867188 420.96875 280.613281 422.171875 C 277.355469 423.375 274.015625 424.246094 270.589844 424.785156 C 263.5 426.621094 256.296875 427.332031 248.988281 426.921875 C 240.242188 426.484375 231.769531 424.734375 223.566406 421.675781 C 215.675781 419.03125 208.109375 415.664062 200.867188 411.5625 C 194.183594 408.203125 187.941406 404.160156 182.136719 399.4375 C 176.335938 394.71875 171.109375 389.425781 166.457031 383.566406 C 163.339844 379.429688 160.804688 374.964844 158.84375 370.167969 C 156.882812 365.371094 155.566406 360.40625 154.894531 355.265625 C 153.957031 346.074219 154.667969 337.011719 157.023438 328.078125 C 159.191406 319.945312 161.882812 311.984375 165.097656 304.207031 C 166.078125 302.0625 166.652344 299.816406 166.816406 297.464844 C 166.984375 295.113281 166.730469 292.808594 166.054688 290.550781 C 164.933594 288.230469 163.453125 286.167969 161.613281 284.363281 C 159.773438 282.554688 157.683594 281.113281 155.34375 280.035156 C 154.167969 279.253906 152.925781 278.597656 151.617188 278.066406 C 150.308594 277.53125 148.960938 277.136719 147.574219 276.875 C 146.1875 276.609375 144.789062 276.488281 143.378906 276.507812 C 141.964844 276.523438 140.570312 276.683594 139.1875 276.980469 C 137.484375 277.773438 135.875 278.722656 134.359375 279.835938 C 132.84375 280.945312 131.449219 282.191406 130.179688 283.574219 C 128.90625 284.960938 127.785156 286.457031 126.804688 288.0625 C 125.828125 289.667969 125.019531 291.351562 124.375 293.117188 C 122.144531 297.070312 120.21875 301.164062 118.59375 305.398438 C 116.96875 309.632812 115.667969 313.964844 114.683594 318.394531 C 113.703125 322.824219 113.054688 327.300781 112.734375 331.824219 C 112.414062 336.347656 112.429688 340.871094 112.78125 345.390625 C 113.113281 350.324219 113.777344 355.214844 114.769531 360.058594 C 115.761719 364.902344 117.074219 369.65625 118.710938 374.320312 C 120.347656 378.984375 122.289062 383.519531 124.539062 387.917969 C 126.789062 392.320312 129.324219 396.550781 132.148438 400.605469 C 139.085938 410.332031 147.066406 419.113281 156.082031 426.949219 C 165.097656 434.785156 174.90625 441.460938 185.5 446.976562 C 191.898438 450.25 198.472656 453.113281 205.226562 455.570312 C 213.035156 458.808594 221.066406 461.351562 229.316406 463.195312 C 235.488281 464.601562 241.722656 465.617188 248.019531 466.25 C 253.320312 466.757812 258.625 466.839844 263.9375 466.5 C 269.25 466.160156 274.503906 465.402344 279.699219 464.230469 C 284.890625 463.054688 289.960938 461.476562 294.902344 459.492188 C 299.847656 457.511719 304.601562 455.152344 309.171875 452.414062 C 312.808594 450.589844 316.300781 448.523438 319.648438 446.210938 C 322.996094 443.894531 326.164062 441.359375 329.152344 438.597656 C 332.144531 435.839844 334.925781 432.882812 337.5 429.730469 C 340.078125 426.582031 342.417969 423.265625 344.527344 419.785156 C 330.800781 415.691406 317.617188 410.277344 304.980469 403.535156 Z M 304.980469 403.535156 " fill-opacity="1" fill-rule="nonzero"/></g></g></g></g><g clip-path="url(#70d128d0e7)"><g clip-path="url(#e5e6a4e3d6)"><g clip-path="url(#ef96a76099)"><g clip-path="url(#2e445cec3d)"><path fill="#1d1d1b" d="M 252.1875 421.1875 C 243.445312 420.746094 234.96875 419 226.769531 415.941406 C 278.039062 322.527344 343 206.101562 400.625 99.773438 C 407.621094 104.9375 413.660156 111.046875 418.738281 118.109375 Z M 252.1875 421.1875 " fill-opacity="1" fill-rule="nonzero"/></g></g></g></g></svg>