<svg xmlns="http://www.w3.org/2000/svg" xmlns:xlink="http://www.w3.org/1999/xlink" viewBox="0 0 237.26 190.5"><defs><style>.cls-1{fill:none;}.cls-2{fill:#97da01;}.cls-3{fill:url(#Motivo_nuevo_4);}</style><pattern id="Motivo_nuevo_4" data-name="Motivo nuevo 4" width="53.62" height="44.28" patternUnits="userSpaceOnUse" viewBox="0 0 53.62 44.28"><rect class="cls-1" width="53.62" height="44.28"/><path class="cls-2" d="M67,49.76a7.16,7.16,0,0,1-1.24,4.06,8.8,8.8,0,0,1-3.54,3,9.32,9.32,0,0,1-1.42.56c.05-.51.07-1,.07-1.6V54.19a4.45,4.45,0,0,0,1.52-1.29A6,6,0,0,0,63.34,51,14.29,14.29,0,0,0,63.71,49a1.54,1.54,0,0,1,.47-1,1.8,1.8,0,0,1,1.17-.31,1.71,1.71,0,0,1,1.26.42A2.19,2.19,0,0,1,67,49.76ZM57,55h.62v.8A12,12,0,0,1,57.4,58c-.24,0-.49,0-.74,0a13,13,0,0,1-5.15-1,8,8,0,0,1-3.77-3.31,11.56,11.56,0,0,1-1.39-6.07V33.79c.17-.1.35-.19.54-.28a7.68,7.68,0,0,1,2.78-.6V47.58q0,3.84,1.86,5.64A7.5,7.5,0,0,0,57,55ZM67,30.31a2,2,0,0,1-.42,1.53,2.26,2.26,0,0,1-2.48,0,1.31,1.31,0,0,1-.42-.85,6.81,6.81,0,0,0-.27-1.77,5.66,5.66,0,0,0-1-1.95,5.25,5.25,0,0,0-2.08-1.56,8.9,8.9,0,0,0-3.55-.6,7.18,7.18,0,0,0-5.3,1.82A5.94,5.94,0,0,0,50,29.87a12.7,12.7,0,0,0-3.47.53,9.5,9.5,0,0,1,1.3-3.93,8.31,8.31,0,0,1,3.79-3.31,12.92,12.92,0,0,1,5.19-1,12.45,12.45,0,0,1,5.55,1.12,8.65,8.65,0,0,1,3.5,3A7.26,7.26,0,0,1,67,30.31Z"/><path class="cls-2" d="M46.49,30.4a14.66,14.66,0,0,0-.14,2.15v1.24a4.73,4.73,0,0,0-1.54,1.3,6.11,6.11,0,0,0-1,2,7.09,7.09,0,0,0-.27,1.81,1.38,1.38,0,0,1-.42.87,1.79,1.79,0,0,1-1.26.37,1.83,1.83,0,0,1-1.22-.37,2.14,2.14,0,0,1-.42-1.57A7.57,7.57,0,0,1,41.43,34a9.17,9.17,0,0,1,5.06-3.63ZM52.1,33a9.72,9.72,0,0,0-1.66-.13l-.77,0v-.36A11,11,0,0,1,50,29.87h.53a11.91,11.91,0,0,1,1.59.1C52.09,31,52.09,32,52.1,33Zm8.8,7.45V54.19c-.13.08-.27.15-.41.22a7.82,7.82,0,0,1-2.91.59V40.47q0-3.86-1.84-5.72a5.37,5.37,0,0,0-1.66-1.15l0-3.27a11.4,11.4,0,0,1,1.61.57,8.38,8.38,0,0,1,3.79,3.37A11.73,11.73,0,0,1,60.9,40.47ZM60.83,57.4A10.53,10.53,0,0,1,59.51,62a8.11,8.11,0,0,1-3.77,3.38,12.37,12.37,0,0,1-1.44.52l0-3.32a5.69,5.69,0,0,0,1.44-1A6.33,6.33,0,0,0,57.4,58,12.89,12.89,0,0,0,60.83,57.4ZM52.3,63.21c0,1.09,0,2.12,0,3.1a14,14,0,0,1-1.73.11A12.25,12.25,0,0,1,45,65.25a8.85,8.85,0,0,1-3.54-3.08A7.41,7.41,0,0,1,40.22,58a2.31,2.31,0,0,1,.42-1.61A1.71,1.71,0,0,1,41.9,56a1.8,1.8,0,0,1,1.17.32,1.57,1.57,0,0,1,.47,1,15.43,15.43,0,0,0,.37,2,6.16,6.16,0,0,0,.92,2,4.85,4.85,0,0,0,1.93,1.54,8.34,8.34,0,0,0,3.53.62A10.51,10.51,0,0,0,52.3,63.21Z"/><path class="cls-2" d="M50,29.87a11,11,0,0,0-.29,2.68v.36a7.68,7.68,0,0,0-2.78.6c-.19.09-.37.18-.54.28V32.55a14.66,14.66,0,0,1,.14-2.15A12.7,12.7,0,0,1,50,29.87Z"/><path class="cls-2" d="M13.41,49.76a7.16,7.16,0,0,1-1.24,4.06,8.8,8.8,0,0,1-3.54,3,9.32,9.32,0,0,1-1.42.56c0-.51.07-1,.07-1.6V54.19A4.45,4.45,0,0,0,8.8,52.9,6,6,0,0,0,9.72,51,14.29,14.29,0,0,0,10.09,49a1.54,1.54,0,0,1,.47-1,1.8,1.8,0,0,1,1.17-.31,1.71,1.71,0,0,1,1.26.42A2.19,2.19,0,0,1,13.41,49.76ZM3.34,55H4v.8A12,12,0,0,1,3.78,58c-.24,0-.49,0-.74,0a13,13,0,0,1-5.15-1,8,8,0,0,1-3.77-3.31,11.56,11.56,0,0,1-1.39-6.07V33.79c.17-.1.35-.19.54-.28a7.68,7.68,0,0,1,2.78-.6V47.58q0,3.84,1.86,5.64A7.5,7.5,0,0,0,3.34,55Zm10.07-24.7A2,2,0,0,1,13,31.84a1.77,1.77,0,0,1-1.21.37,1.75,1.75,0,0,1-1.27-.37,1.31,1.31,0,0,1-.42-.85,6.81,6.81,0,0,0-.27-1.77,5.66,5.66,0,0,0-1-1.95,5.25,5.25,0,0,0-2.08-1.56,8.9,8.9,0,0,0-3.55-.6,7.18,7.18,0,0,0-5.3,1.82,5.94,5.94,0,0,0-1.55,2.94,12.7,12.7,0,0,0-3.47.53,9.5,9.5,0,0,1,1.3-3.93A8.31,8.31,0,0,1-2,23.16a12.92,12.92,0,0,1,5.19-1A12.45,12.45,0,0,1,8.7,23.26a8.65,8.65,0,0,1,3.5,3A7.26,7.26,0,0,1,13.41,30.31Z"/><path class="cls-2" d="M-7.13,30.4a14.66,14.66,0,0,0-.14,2.15v1.24a4.73,4.73,0,0,0-1.54,1.3,6.11,6.11,0,0,0-1,2,7.09,7.09,0,0,0-.27,1.81,1.38,1.38,0,0,1-.42.87,1.79,1.79,0,0,1-1.26.37A1.83,1.83,0,0,1-13,39.76a2.14,2.14,0,0,1-.42-1.57A7.57,7.57,0,0,1-12.19,34a8.63,8.63,0,0,1,3.5-3A8.55,8.55,0,0,1-7.13,30.4ZM-1.52,33a9.72,9.72,0,0,0-1.66-.13l-.77,0v-.36a11,11,0,0,1,.29-2.68h.53a11.91,11.91,0,0,1,1.59.1C-1.53,31-1.53,32-1.52,33Zm8.8,7.45V54.19c-.13.08-.27.15-.41.22A7.82,7.82,0,0,1,4,55V40.47q0-3.86-1.84-5.72A5.37,5.37,0,0,0,.46,33.6l0-3.27a11.4,11.4,0,0,1,1.61.57,8.38,8.38,0,0,1,3.79,3.37A11.73,11.73,0,0,1,7.28,40.47ZM7.21,57.4A10.53,10.53,0,0,1,5.89,62a8.11,8.11,0,0,1-3.77,3.38,12.37,12.37,0,0,1-1.44.52l0-3.32a5.69,5.69,0,0,0,1.44-1A6.33,6.33,0,0,0,3.78,58,12.89,12.89,0,0,0,7.21,57.4Zm-8.53,5.81c0,1.09,0,2.12,0,3.1A14,14,0,0,1-3,66.42a12.25,12.25,0,0,1-5.59-1.17,8.85,8.85,0,0,1-3.54-3.08A7.41,7.41,0,0,1-13.4,58,2.31,2.31,0,0,1-13,56.42,1.71,1.71,0,0,1-11.72,56a1.8,1.8,0,0,1,1.17.32,1.57,1.57,0,0,1,.47,1,15.43,15.43,0,0,0,.37,2,6.16,6.16,0,0,0,.92,2,4.85,4.85,0,0,0,1.93,1.54,8.34,8.34,0,0,0,3.53.62A10.51,10.51,0,0,0-1.32,63.21Z"/><path class="cls-2" d="M67,5.48a7.16,7.16,0,0,1-1.24,4.06,8.8,8.8,0,0,1-3.54,3,9.32,9.32,0,0,1-1.42.56c.05-.51.07-1,.07-1.6V9.91a4.45,4.45,0,0,0,1.52-1.29,6,6,0,0,0,.92-1.95,14.29,14.29,0,0,0,.37-1.92,1.54,1.54,0,0,1,.47-1,1.8,1.8,0,0,1,1.17-.31,1.71,1.71,0,0,1,1.26.42A2.19,2.19,0,0,1,67,5.48ZM57,10.73h.62v.8a12,12,0,0,1-.18,2.16c-.24,0-.49,0-.74,0a13,13,0,0,1-5.15-1,8,8,0,0,1-3.77-3.31A11.56,11.56,0,0,1,46.35,3.3V-10.49c.17-.1.35-.19.54-.28a7.68,7.68,0,0,1,2.78-.6V3.3q0,3.84,1.86,5.64A7.5,7.5,0,0,0,57,10.73ZM67-14a2,2,0,0,1-.42,1.53,1.77,1.77,0,0,1-1.21.37,1.75,1.75,0,0,1-1.27-.37,1.31,1.31,0,0,1-.42-.85,6.81,6.81,0,0,0-.27-1.77,5.66,5.66,0,0,0-1-2,5.25,5.25,0,0,0-2.08-1.56,8.9,8.9,0,0,0-3.55-.6,7.18,7.18,0,0,0-5.3,1.82A5.94,5.94,0,0,0,50-14.41a12.7,12.7,0,0,0-3.47.53,9.5,9.5,0,0,1,1.3-3.93,8.31,8.31,0,0,1,3.79-3.31,12.92,12.92,0,0,1,5.19-1A12.45,12.45,0,0,1,62.32-21a8.65,8.65,0,0,1,3.5,3A7.26,7.26,0,0,1,67-14Z"/><path class="cls-2" d="M46.49-13.88a14.66,14.66,0,0,0-.14,2.15v1.24a4.73,4.73,0,0,0-1.54,1.3,6.11,6.11,0,0,0-1,2,7.09,7.09,0,0,0-.27,1.81,1.38,1.38,0,0,1-.42.87,1.79,1.79,0,0,1-1.26.37,1.83,1.83,0,0,1-1.22-.37,2.14,2.14,0,0,1-.42-1.57,7.57,7.57,0,0,1,1.21-4.16,8.63,8.63,0,0,1,3.5-3A8.55,8.55,0,0,1,46.49-13.88Zm5.61,2.62a9.72,9.72,0,0,0-1.66-.13l-.77,0v-.36A11,11,0,0,1,50-14.41h.53a11.91,11.91,0,0,1,1.59.1C52.09-13.33,52.09-12.3,52.1-11.26Zm8.8,7.45V9.91c-.13.08-.27.15-.41.22a7.82,7.82,0,0,1-2.91.59V-3.81q0-3.85-1.84-5.72a5.37,5.37,0,0,0-1.66-1.15l0-3.27a11.4,11.4,0,0,1,1.61.57A8.38,8.38,0,0,1,59.46-10,11.73,11.73,0,0,1,60.9-3.81Zm-.07,16.93a10.53,10.53,0,0,1-1.32,4.6,8.11,8.11,0,0,1-3.77,3.38,12.37,12.37,0,0,1-1.44.52l0-3.32a5.69,5.69,0,0,0,1.44-1,6.33,6.33,0,0,0,1.68-3.6A12.89,12.89,0,0,0,60.83,13.12ZM52.3,18.93c0,1.09,0,2.12,0,3.1a14,14,0,0,1-1.73.11A12.25,12.25,0,0,1,45,21a8.85,8.85,0,0,1-3.54-3.08,7.41,7.41,0,0,1-1.24-4.14,2.31,2.31,0,0,1,.42-1.61,1.71,1.71,0,0,1,1.26-.42,1.8,1.8,0,0,1,1.17.32,1.57,1.57,0,0,1,.47,1,15.43,15.43,0,0,0,.37,2,6.16,6.16,0,0,0,.92,2,4.85,4.85,0,0,0,1.93,1.54,8.34,8.34,0,0,0,3.53.62A10.51,10.51,0,0,0,52.3,18.93Z"/><path class="cls-2" d="M40.22,27.62A7.16,7.16,0,0,1,39,31.68a8.8,8.8,0,0,1-3.54,3,9.32,9.32,0,0,1-1.42.56c0-.51.07-1,.07-1.6V32.05a4.45,4.45,0,0,0,1.52-1.29,6,6,0,0,0,.92-2,14.29,14.29,0,0,0,.37-1.92,1.54,1.54,0,0,1,.47-.95,1.8,1.8,0,0,1,1.17-.31,1.71,1.71,0,0,1,1.26.42A2.19,2.19,0,0,1,40.22,27.62ZM30.15,32.87h.62v.8a12,12,0,0,1-.18,2.16c-.24,0-.49,0-.74,0a13,13,0,0,1-5.15-1,8,8,0,0,1-3.77-3.31,11.56,11.56,0,0,1-1.39-6.07V11.65c.17-.1.35-.19.54-.28a7.68,7.68,0,0,1,2.78-.6V25.44q0,3.84,1.86,5.64A7.5,7.5,0,0,0,30.15,32.87ZM40.22,8.17A2,2,0,0,1,39.8,9.7a2.26,2.26,0,0,1-2.48,0,1.31,1.31,0,0,1-.42-.85,6.81,6.81,0,0,0-.27-1.77,5.66,5.66,0,0,0-1-1.95,5.25,5.25,0,0,0-2.08-1.56A8.9,8.9,0,0,0,30,3a7.18,7.18,0,0,0-5.3,1.82,5.94,5.94,0,0,0-1.55,2.94,12.7,12.7,0,0,0-3.47.53A9.5,9.5,0,0,1,21,4.33,8.31,8.31,0,0,1,24.77,1,12.92,12.92,0,0,1,30,0a12.45,12.45,0,0,1,5.55,1.12,8.65,8.65,0,0,1,3.5,3A7.26,7.26,0,0,1,40.22,8.17Z"/><path class="cls-2" d="M19.68,8.26a14.66,14.66,0,0,0-.14,2.15v1.24A4.73,4.73,0,0,0,18,13a6.11,6.11,0,0,0-1,2,7.09,7.09,0,0,0-.27,1.81,1.38,1.38,0,0,1-.42.87,1.79,1.79,0,0,1-1.26.37,1.83,1.83,0,0,1-1.22-.37,2.14,2.14,0,0,1-.42-1.57,7.57,7.57,0,0,1,1.21-4.16,9.17,9.17,0,0,1,5.06-3.63Zm5.61,2.62a9.72,9.72,0,0,0-1.66-.13l-.77,0v-.36a11,11,0,0,1,.29-2.68h.53a11.91,11.91,0,0,1,1.59.1C25.28,8.81,25.28,9.84,25.29,10.88Zm8.8,7.45V32.05c-.13.08-.27.15-.41.22a7.82,7.82,0,0,1-2.91.59V18.33q0-3.85-1.84-5.72a5.37,5.37,0,0,0-1.66-1.15l0-3.27a11.4,11.4,0,0,1,1.61.57,8.38,8.38,0,0,1,3.79,3.37A11.73,11.73,0,0,1,34.09,18.33ZM34,35.26a10.53,10.53,0,0,1-1.32,4.6,8.11,8.11,0,0,1-3.77,3.38,12.37,12.37,0,0,1-1.44.52l0-3.32a5.69,5.69,0,0,0,1.44-1,6.33,6.33,0,0,0,1.68-3.6A12.89,12.89,0,0,0,34,35.26Zm-8.53,5.81c0,1.09,0,2.12,0,3.1a14,14,0,0,1-1.73.11,12.25,12.25,0,0,1-5.59-1.17A8.85,8.85,0,0,1,14.65,40a7.41,7.41,0,0,1-1.24-4.14,2.31,2.31,0,0,1,.42-1.61,1.71,1.71,0,0,1,1.26-.42,1.8,1.8,0,0,1,1.17.32,1.57,1.57,0,0,1,.47,1,15.43,15.43,0,0,0,.37,2,6.16,6.16,0,0,0,.92,2A4.85,4.85,0,0,0,20,40.63a8.34,8.34,0,0,0,3.53.62A10.51,10.51,0,0,0,25.49,41.07Z"/><path class="cls-2" d="M34.09,32.05v1.61c0,.56,0,1.09-.07,1.6a12.89,12.89,0,0,1-3.43.56,12,12,0,0,0,.18-2.16v-.8a7.82,7.82,0,0,0,2.91-.59C33.82,32.2,34,32.13,34.09,32.05Z"/><path class="cls-2" d="M23.15,7.73a11,11,0,0,0-.29,2.68v.36a7.68,7.68,0,0,0-2.78.6c-.19.09-.37.18-.54.28V10.41a14.66,14.66,0,0,1,.14-2.15A12.7,12.7,0,0,1,23.15,7.73Z"/><path class="cls-2" d="M13.41,5.48a7.16,7.16,0,0,1-1.24,4.06,8.8,8.8,0,0,1-3.54,3,9.32,9.32,0,0,1-1.42.56c0-.51.07-1,.07-1.6V9.91A4.45,4.45,0,0,0,8.8,8.62a6,6,0,0,0,.92-1.95,14.29,14.29,0,0,0,.37-1.92,1.54,1.54,0,0,1,.47-1,1.8,1.8,0,0,1,1.17-.31A1.71,1.71,0,0,1,13,3.91,2.19,2.19,0,0,1,13.41,5.48ZM3.34,10.73H4v.8a12,12,0,0,1-.18,2.16c-.24,0-.49,0-.74,0a13,13,0,0,1-5.15-1A8,8,0,0,1-5.88,9.37,11.56,11.56,0,0,1-7.27,3.3V-10.49c.17-.1.35-.19.54-.28a7.68,7.68,0,0,1,2.78-.6V3.3q0,3.84,1.86,5.64A7.5,7.5,0,0,0,3.34,10.73ZM13.41-14A2,2,0,0,1,13-12.44a1.77,1.77,0,0,1-1.21.37,1.75,1.75,0,0,1-1.27-.37,1.31,1.31,0,0,1-.42-.85,6.81,6.81,0,0,0-.27-1.77,5.66,5.66,0,0,0-1-2,5.25,5.25,0,0,0-2.08-1.56,8.9,8.9,0,0,0-3.55-.6,7.18,7.18,0,0,0-5.3,1.82,5.94,5.94,0,0,0-1.55,2.94,12.7,12.7,0,0,0-3.47.53,9.5,9.5,0,0,1,1.3-3.93A8.31,8.31,0,0,1-2-21.12a12.92,12.92,0,0,1,5.19-1A12.45,12.45,0,0,1,8.7-21a8.65,8.65,0,0,1,3.5,3A7.26,7.26,0,0,1,13.41-14Z"/><path class="cls-2" d="M-7.13-13.88a14.66,14.66,0,0,0-.14,2.15v1.24a4.73,4.73,0,0,0-1.54,1.3,6.11,6.11,0,0,0-1,2,7.09,7.09,0,0,0-.27,1.81,1.38,1.38,0,0,1-.42.87,1.79,1.79,0,0,1-1.26.37A1.83,1.83,0,0,1-13-4.52a2.14,2.14,0,0,1-.42-1.57,7.57,7.57,0,0,1,1.21-4.16,8.63,8.63,0,0,1,3.5-3A8.55,8.55,0,0,1-7.13-13.88Zm5.61,2.62a9.72,9.72,0,0,0-1.66-.13l-.77,0v-.36a11,11,0,0,1,.29-2.68h.53a11.91,11.91,0,0,1,1.59.1C-1.53-13.33-1.53-12.3-1.52-11.26Zm8.8,7.45V9.91c-.13.08-.27.15-.41.22A7.82,7.82,0,0,1,4,10.72V-3.81Q4-7.66,2.12-9.53A5.37,5.37,0,0,0,.46-10.68l0-3.27a11.4,11.4,0,0,1,1.61.57A8.38,8.38,0,0,1,5.84-10,11.73,11.73,0,0,1,7.28-3.81ZM7.21,13.12a10.53,10.53,0,0,1-1.32,4.6A8.11,8.11,0,0,1,2.12,21.1a12.37,12.37,0,0,1-1.44.52l0-3.32a5.69,5.69,0,0,0,1.44-1,6.33,6.33,0,0,0,1.68-3.6A12.89,12.89,0,0,0,7.21,13.12Zm-8.53,5.81c0,1.09,0,2.12,0,3.1A14,14,0,0,1-3,22.14,12.25,12.25,0,0,1-8.62,21a8.85,8.85,0,0,1-3.54-3.08,7.41,7.41,0,0,1-1.24-4.14A2.31,2.31,0,0,1-13,12.14a1.71,1.71,0,0,1,1.26-.42,1.8,1.8,0,0,1,1.17.32,1.57,1.57,0,0,1,.47,1,15.43,15.43,0,0,0,.37,2,6.16,6.16,0,0,0,.92,2,4.85,4.85,0,0,0,1.93,1.54,8.34,8.34,0,0,0,3.53.62A10.51,10.51,0,0,0-1.32,18.93Z"/><path class="cls-2" d="M7.28,9.91v1.61c0,.56,0,1.09-.07,1.6a12.89,12.89,0,0,1-3.43.56A12,12,0,0,0,4,11.52v-.8a7.82,7.82,0,0,0,2.91-.59C7,10.06,7.15,10,7.28,9.91Z"/></pattern></defs><g id="Capa_2" data-name="Capa 2"><g id="Capa_1-2" data-name="Capa 1"><rect class="cls-3" width="237.26" height="190.5"/></g></g></svg>