<svg xmlns="http://www.w3.org/2000/svg" xmlns:xlink="http://www.w3.org/1999/xlink" viewBox="0 0 276 242.74"><defs><style>.cls-1,.cls-2{fill:none;}.cls-2{stroke:#fd7a09;stroke-miterlimit:10;}.cls-3{fill:#fd7a09;}.cls-4{fill:#1d1d1b;}.cls-5{fill:url(#Motivo_nuevo_3);}</style><pattern id="Motivo_nuevo_3" data-name="Motivo nuevo 3" width="273.6" height="243.05" patternUnits="userSpaceOnUse" viewBox="0 0 273.6 243.05"><rect class="cls-1" width="273.6" height="243.05"/><path class="cls-2" d="M227.29,270.23l-5.61-5.54-2.36-2.33L198.69,242l-2.33-2.3-12.05-11.89c-.65-.64-1.27-.62-1.39,0a3,3,0,0,0,.94,2.31l8.71,8.59,2.07,2,.06.06c.71.69,1.44,1.42,2.18,2.15,7,6.88,15.36,15.17,21.49,21.21l2.2,2.17,6.27,6.18c.43.44.85.58,1.12.42a.55.55,0,0,0,.26-.43A3,3,0,0,0,227.29,270.23Z"/><path class="cls-3" d="M272.64,272.65,267,267.11l-2.36-2.33L244,244.43l-2.33-2.3-12.05-11.89c-.65-.64-1.27-.63-1.39,0a3,3,0,0,0,.94,2.31l8.7,8.59,2.08,2.05.06.06c.71.69,1.44,1.42,2.18,2.15,7,6.88,15.36,15.17,21.49,21.2l2.2,2.18,6.27,6.18c.43.43.85.57,1.12.42a.57.57,0,0,0,.26-.43A3,3,0,0,0,272.64,272.65Z"/><path class="cls-2" d="M227.29,221.62l-5.61-5.54-2.36-2.33L198.69,193.4l-2.33-2.3-12.05-11.89c-.65-.64-1.27-.62-1.39,0a3,3,0,0,0,.94,2.31l8.71,8.59,2.07,2.05.06.06c.71.69,1.44,1.42,2.18,2.15,7,6.88,15.36,15.17,21.49,21.21l2.2,2.17,6.27,6.18c.43.44.85.58,1.12.42a.55.55,0,0,0,.26-.43A3,3,0,0,0,227.29,221.62Z"/><path class="cls-3" d="M272.64,224,267,218.5l-2.36-2.33L244,195.82l-2.33-2.3-12.05-11.89c-.65-.64-1.27-.63-1.39,0a3,3,0,0,0,.94,2.31l8.7,8.59,2.08,2,.06.06c.71.69,1.44,1.42,2.18,2.15L263.72,218l2.2,2.18,6.27,6.18c.43.43.85.57,1.12.42a.57.57,0,0,0,.26-.43A3,3,0,0,0,272.64,224Z"/><path class="cls-2" d="M136.09,237.82l-5.61-5.53L128.12,230,107.49,209.6l-2.33-2.29-12-11.9c-.65-.63-1.27-.62-1.39,0a3.05,3.05,0,0,0,.94,2.32l8.71,8.59,2.07,2,.06.05,2.18,2.15c7,6.88,15.36,15.17,21.49,21.21.78.76,1.51,1.48,2.2,2.18,3.79,3.72,6.27,6.18,6.27,6.18.43.43.85.57,1.12.42a.57.57,0,0,0,.26-.44A3,3,0,0,0,136.09,237.82Z"/><path class="cls-3" d="M181.44,240.24l-5.61-5.54-2.36-2.33L152.84,212l-2.33-2.3-12-11.89c-.65-.64-1.27-.62-1.39,0a3,3,0,0,0,.94,2.31l8.71,8.59,2.07,2.05.06.06c.71.69,1.44,1.42,2.18,2.15,7,6.88,15.36,15.17,21.49,21.21l2.2,2.17,6.27,6.18c.43.44.85.58,1.12.42a.55.55,0,0,0,.26-.43A3,3,0,0,0,181.44,240.24Z"/><path class="cls-2" d="M44.89,254l-5.61-5.54-2.36-2.33L16.29,225.81,14,223.51l-12-11.89c-.65-.64-1.27-.63-1.39,0A3,3,0,0,0,1.46,214l8.71,8.59,2.07,2.05.06.06c.71.69,1.44,1.42,2.18,2.15L36,248l2.2,2.18,6.27,6.18c.43.43.85.57,1.12.42a.6.6,0,0,0,.27-.43A3,3,0,0,0,44.89,254Z"/><path class="cls-3" d="M90.24,256.45l-5.61-5.54-2.36-2.34L61.64,228.22l-2.33-2.29L47.26,214c-.65-.63-1.27-.62-1.39,0a3.05,3.05,0,0,0,.94,2.32L55.52,225l2.07,2,.06.05,2.18,2.15c7,6.88,15.36,15.17,21.49,21.21.78.76,1.51,1.49,2.2,2.18,3.79,3.72,6.27,6.18,6.27,6.18.43.43.85.57,1.12.42a.57.57,0,0,0,.26-.44A3,3,0,0,0,90.24,256.45Z"/><path class="cls-2" d="M227.29,173l-5.61-5.54-2.36-2.33-20.63-20.35-2.33-2.3L184.31,130.6c-.65-.64-1.27-.62-1.39,0a3,3,0,0,0,.94,2.31l8.71,8.59,2.07,2,.06.06c.71.69,1.44,1.42,2.18,2.15,7,6.88,15.36,15.17,21.49,21.21l2.2,2.17,6.27,6.18c.43.43.85.58,1.12.42a.57.57,0,0,0,.26-.43A3,3,0,0,0,227.29,173Z"/><path class="cls-3" d="M272.64,175.43,267,169.89l-2.36-2.33L244,147.21l-2.33-2.3L229.66,133c-.65-.64-1.27-.63-1.39,0a3,3,0,0,0,.94,2.31l8.7,8.59L240,146l.06.06c.71.69,1.44,1.42,2.18,2.15l21.49,21.2,2.2,2.18,6.27,6.18c.43.43.85.57,1.12.42a.57.57,0,0,0,.26-.43A3,3,0,0,0,272.64,175.43Z"/><path class="cls-2" d="M136.09,189.21l-5.61-5.53-2.36-2.34L107.49,161l-2.33-2.29-12-11.9c-.65-.63-1.27-.62-1.39,0a3,3,0,0,0,.94,2.31l8.71,8.6,2.07,2.05.06.05,2.18,2.15c7,6.88,15.36,15.17,21.49,21.21.78.76,1.51,1.48,2.2,2.18,3.79,3.72,6.27,6.18,6.27,6.18.43.43.85.57,1.12.41a.53.53,0,0,0,.26-.43A3,3,0,0,0,136.09,189.21Z"/><path class="cls-3" d="M181.44,191.63l-5.61-5.54-2.36-2.33-20.63-20.35-2.33-2.3-12-11.89c-.65-.64-1.27-.62-1.39,0a3,3,0,0,0,.94,2.31l8.71,8.59,2.07,2.05.06.06c.71.69,1.44,1.42,2.18,2.15,7,6.88,15.36,15.17,21.49,21.21l2.2,2.17L181,194c.43.44.85.58,1.12.42a.55.55,0,0,0,.26-.43A3,3,0,0,0,181.44,191.63Z"/><path class="cls-2" d="M44.89,205.42l-5.61-5.54-2.36-2.33L16.29,177.2,14,174.9,1.91,163c-.65-.64-1.27-.63-1.39,0a3,3,0,0,0,.94,2.31l8.71,8.59,2.07,2,.06.06c.71.69,1.44,1.42,2.18,2.15L36,199.39l2.2,2.18,6.27,6.18c.43.43.85.57,1.12.42a.6.6,0,0,0,.27-.43A3,3,0,0,0,44.89,205.42Z"/><path class="cls-3" d="M90.24,207.83l-5.61-5.53L82.27,200,61.64,179.61l-2.33-2.29-12.05-11.9c-.65-.63-1.27-.62-1.39,0a3.05,3.05,0,0,0,.94,2.32l8.71,8.59,2.07,2.05.06,0,2.18,2.15c7,6.88,15.36,15.17,21.49,21.21.78.76,1.51,1.48,2.2,2.18,3.79,3.72,6.27,6.18,6.27,6.18.43.43.85.57,1.12.42a.57.57,0,0,0,.26-.44A3,3,0,0,0,90.24,207.83Z"/><path class="cls-2" d="M227.29,124.4l-5.61-5.54-2.36-2.33L198.69,96.18l-2.33-2.3L184.31,82c-.65-.64-1.27-.63-1.39,0a3,3,0,0,0,.94,2.31l8.71,8.59,2.07,2,.06.06c.71.69,1.44,1.42,2.18,2.15,7,6.88,15.36,15.17,21.49,21.2l2.2,2.18,6.27,6.18c.43.43.85.58,1.12.42a.57.57,0,0,0,.26-.43A3,3,0,0,0,227.29,124.4Z"/><path class="cls-3" d="M272.64,126.82,267,121.28,264.67,119,244,98.6l-2.33-2.3L229.66,84.4c-.65-.63-1.27-.62-1.39,0a3,3,0,0,0,.94,2.31l8.7,8.59,2.08,2,.06.06c.71.69,1.44,1.42,2.18,2.15l21.49,21.2,2.2,2.18,6.27,6.18c.43.43.85.57,1.12.42a.57.57,0,0,0,.26-.43A3,3,0,0,0,272.64,126.82Z"/><path class="cls-2" d="M136.09,140.6l-5.61-5.53-2.36-2.34-20.63-20.35-2.33-2.3-12-11.89c-.65-.64-1.27-.62-1.39,0a3,3,0,0,0,.94,2.31l8.71,8.6,2.07,2,.06,0,2.18,2.15c7,6.88,15.36,15.17,21.49,21.21.78.76,1.51,1.48,2.2,2.18,3.79,3.72,6.27,6.18,6.27,6.18.43.43.85.57,1.12.41a.53.53,0,0,0,.26-.43A3,3,0,0,0,136.09,140.6Z"/><path class="cls-3" d="M181.44,143l-5.61-5.54-2.36-2.33L152.84,114.8l-2.33-2.3-12-11.89c-.65-.64-1.27-.62-1.39,0a3,3,0,0,0,.94,2.31l8.71,8.59,2.07,2,.06.06c.71.69,1.44,1.42,2.18,2.15,7,6.88,15.36,15.17,21.49,21.21l2.2,2.17,6.27,6.18c.43.43.85.58,1.12.42a.57.57,0,0,0,.26-.43A3,3,0,0,0,181.44,143Z"/><path class="cls-2" d="M44.89,156.81l-5.61-5.54-2.36-2.33L16.29,128.59,14,126.29l-12-11.9c-.65-.63-1.27-.62-1.39,0a3,3,0,0,0,.94,2.31l8.71,8.59,2.07,2.05.06.06c.71.69,1.44,1.42,2.18,2.15L36,150.78l2.2,2.18,6.27,6.18c.43.43.85.57,1.12.42a.6.6,0,0,0,.27-.43A3,3,0,0,0,44.89,156.81Z"/><path class="cls-3" d="M90.24,159.22l-5.61-5.53-2.36-2.34L61.64,131l-2.33-2.29-12.05-11.9c-.65-.63-1.27-.62-1.39,0a3,3,0,0,0,.94,2.31l8.71,8.6,2.07,2,.06.05L59.83,132c7,6.88,15.36,15.17,21.49,21.21.78.76,1.51,1.48,2.2,2.18,3.79,3.72,6.27,6.18,6.27,6.18.43.43.85.57,1.12.41a.53.53,0,0,0,.26-.43A3,3,0,0,0,90.24,159.22Z"/><path class="cls-2" d="M227.29,75.79l-5.61-5.54-2.36-2.33L198.69,47.57l-2.33-2.3L184.31,33.38c-.65-.64-1.27-.63-1.39,0a3,3,0,0,0,.94,2.31l8.71,8.59,2.07,2.05.06.06c.71.69,1.44,1.42,2.18,2.15,7,6.88,15.36,15.17,21.49,21.2l2.2,2.18,6.27,6.18c.43.43.85.57,1.12.42a.57.57,0,0,0,.26-.43A3,3,0,0,0,227.29,75.79Z"/><path class="cls-3" d="M272.64,78.21,267,72.67l-2.36-2.33L244,50l-2.33-2.3-12.05-11.9c-.65-.63-1.27-.62-1.39,0a3.05,3.05,0,0,0,.94,2.32l8.7,8.59L240,48.77l.06.06c.71.69,1.44,1.42,2.18,2.15l21.49,21.2,2.2,2.18,6.27,6.18c.43.43.85.57,1.12.42a.57.57,0,0,0,.26-.43A3,3,0,0,0,272.64,78.21Z"/><path class="cls-2" d="M136.09,92l-5.61-5.53-2.36-2.34L107.49,63.77l-2.33-2.3-12-11.89c-.65-.64-1.27-.62-1.39,0a3,3,0,0,0,.94,2.31l8.71,8.59,2.07,2.06.06,0,2.18,2.15c7,6.88,15.36,15.17,21.49,21.21.78.76,1.51,1.48,2.2,2.18,3.79,3.72,6.27,6.18,6.27,6.18.43.43.85.57,1.12.41a.53.53,0,0,0,.26-.43A3,3,0,0,0,136.09,92Z"/><path class="cls-3" d="M181.44,94.41l-5.61-5.54-2.36-2.33L152.84,66.19l-2.33-2.3L138.46,52c-.65-.64-1.27-.63-1.39,0a3,3,0,0,0,.94,2.31l8.71,8.59,2.07,2,.06.06c.71.69,1.44,1.42,2.18,2.15,7,6.88,15.36,15.17,21.49,21.2l2.2,2.18L181,96.74c.43.43.85.58,1.12.42a.57.57,0,0,0,.26-.43A3,3,0,0,0,181.44,94.41Z"/><path class="cls-2" d="M44.89,108.2l-5.61-5.54-2.36-2.33L16.29,80,14,77.68l-12-11.9c-.65-.63-1.27-.62-1.39,0a3.05,3.05,0,0,0,.94,2.32l8.71,8.59,2.07,2.05.06.06c.71.69,1.44,1.42,2.18,2.15L36,102.17l2.2,2.18,6.27,6.18c.43.43.85.57,1.12.42a.6.6,0,0,0,.27-.43A3,3,0,0,0,44.89,108.2Z"/><path class="cls-3" d="M90.24,110.61l-5.61-5.53-2.36-2.34L61.64,82.39l-2.33-2.3L47.26,68.2c-.65-.64-1.27-.62-1.39,0a3,3,0,0,0,.94,2.31l8.71,8.6,2.07,2.05.06,0,2.18,2.15c7,6.88,15.36,15.17,21.49,21.21.78.76,1.51,1.48,2.2,2.18,3.79,3.72,6.27,6.18,6.27,6.18.43.43.85.57,1.12.41a.53.53,0,0,0,.26-.43A3,3,0,0,0,90.24,110.61Z"/><path class="cls-2" d="M227.29,27.18l-5.61-5.54-2.36-2.33L198.69-1l-2.33-2.3L184.31-15.23c-.65-.64-1.27-.63-1.39,0a3,3,0,0,0,.94,2.31l8.71,8.59,2.07,2.05.06.06c.71.69,1.44,1.42,2.18,2.15l21.49,21.2,2.2,2.18,6.27,6.18c.43.43.85.57,1.12.42a.57.57,0,0,0,.26-.43A3,3,0,0,0,227.29,27.18Z"/><path class="cls-3" d="M272.64,29.6,267,24.06l-2.36-2.33L244,1.37,241.71-.92l-12.05-11.9c-.65-.63-1.27-.62-1.39,0a3.05,3.05,0,0,0,.94,2.32l8.7,8.59L240,.16l.06,0,2.18,2.15c7,6.88,15.36,15.17,21.49,21.21.78.76,1.51,1.49,2.2,2.18l6.27,6.18c.43.43.85.57,1.12.42a.57.57,0,0,0,.26-.44A3,3,0,0,0,272.64,29.6Z"/><path class="cls-2" d="M136.09,43.38l-5.61-5.53-2.36-2.34L107.49,15.16l-2.33-2.3L93.11,1c-.65-.64-1.27-.62-1.39,0a3,3,0,0,0,.94,2.31l8.71,8.59,2.07,2,.06.06c.71.69,1.44,1.42,2.18,2.15,7,6.88,15.36,15.17,21.49,21.21.78.76,1.51,1.48,2.2,2.18,3.79,3.72,6.27,6.18,6.27,6.18.43.43.85.57,1.12.41a.55.55,0,0,0,.26-.43A3,3,0,0,0,136.09,43.38Z"/><path class="cls-3" d="M181.44,45.8l-5.61-5.54-2.36-2.33L152.84,17.58l-2.33-2.3-12-11.89c-.65-.64-1.27-.63-1.39,0A3,3,0,0,0,138,5.72l8.71,8.59,2.07,2,.06.06c.71.69,1.44,1.42,2.18,2.15,7,6.88,15.36,15.17,21.49,21.2l2.2,2.18L181,48.13c.43.43.85.57,1.12.42a.57.57,0,0,0,.26-.43A3,3,0,0,0,181.44,45.8Z"/><path class="cls-2" d="M44.89,59.59l-5.61-5.54-2.36-2.33L16.29,31.36,14,29.07l-12-11.9c-.65-.63-1.27-.62-1.39,0a3.05,3.05,0,0,0,.94,2.32l8.71,8.59,2.07,2,.06.05,2.18,2.15c7,6.88,15.36,15.17,21.49,21.21.78.76,1.51,1.49,2.2,2.18l6.27,6.18c.43.43.85.57,1.12.42a.6.6,0,0,0,.27-.44A3,3,0,0,0,44.89,59.59Z"/><path class="cls-3" d="M90.24,62l-5.61-5.53-2.36-2.34L61.64,33.78l-2.33-2.3L47.26,19.59c-.65-.64-1.27-.62-1.39,0a3,3,0,0,0,.94,2.31l8.71,8.59,2.07,2.06.06,0,2.18,2.15c7,6.88,15.36,15.17,21.49,21.21.78.76,1.51,1.48,2.2,2.18,3.79,3.72,6.27,6.18,6.27,6.18.43.43.85.57,1.12.41a.53.53,0,0,0,.26-.43A3,3,0,0,0,90.24,62Z"/><path class="cls-2" d="M44.89,11,39.28,5.44,36.92,3.1,16.29-17.25,14-19.54l-12-11.9c-.65-.63-1.27-.62-1.39,0a3.05,3.05,0,0,0,.94,2.32l8.71,8.59,2.07,2.05.06.05,2.18,2.15C21.46-9.38,29.84-1.09,36,5c.78.76,1.51,1.48,2.2,2.18,3.79,3.72,6.27,6.18,6.27,6.18.43.43.85.57,1.12.42a.6.6,0,0,0,.27-.44A3,3,0,0,0,44.89,11Z"/><path class="cls-3" d="M90.24,13.39,84.63,7.86,82.27,5.52,61.64-14.83l-2.33-2.3L47.26-29c-.65-.64-1.27-.62-1.39,0a3,3,0,0,0,.94,2.31l8.71,8.59L57.59-16l.06.06c.71.69,1.44,1.42,2.18,2.15C66.81-7,75.19,1.33,81.32,7.37c.78.76,1.51,1.48,2.2,2.18,3.79,3.72,6.27,6.18,6.27,6.18.43.43.85.57,1.12.41a.55.55,0,0,0,.26-.43A3,3,0,0,0,90.24,13.39Z"/></pattern></defs><g id="Capa_2" data-name="Capa 2"><g id="Capa_1-2" data-name="Capa 1"><rect class="cls-4" width="275.55" height="242.74"/><rect class="cls-5" width="276" height="242.04"/></g></g></svg>